<svg width="22" height="22" viewBox="0 0 22 22" fill="none" xmlns="http://www.w3.org/2000/svg">
<path d="M0 1.57143C0 1.15466 0.165561 0.754961 0.460261 0.460261C0.754961 0.165561 1.15466 0 1.57143 0H4.71429C5.13105 0 5.53075 0.165561 5.82545 0.460261C6.12015 0.754961 6.28571 1.15466 6.28571 1.57143V4.71429C6.28571 5.13105 6.12015 5.53075 5.82545 5.82545C5.53075 6.12015 5.13105 6.28571 4.71429 6.28571H1.57143C1.15466 6.28571 0.754961 6.12015 0.460261 5.82545C0.165561 5.53075 0 5.13105 0 4.71429V1.57143ZM7.85714 1.57143C7.85714 1.15466 8.0227 0.754961 8.3174 0.460261C8.6121 0.165561 9.0118 0 9.42857 0H12.5714C12.9882 0 13.3879 0.165561 13.6826 0.460261C13.9773 0.754961 14.1429 1.15466 14.1429 1.57143V4.71429C14.1429 5.13105 13.9773 5.53075 13.6826 5.82545C13.3879 6.12015 12.9882 6.28571 12.5714 6.28571H9.42857C9.0118 6.28571 8.6121 6.12015 8.3174 5.82545C8.0227 5.53075 7.85714 5.13105 7.85714 4.71429V1.57143ZM15.7143 1.57143C15.7143 1.15466 15.8798 0.754961 16.1745 0.460261C16.4692 0.165561 16.8689 0 17.2857 0H20.4286C20.8453 0 21.245 0.165561 21.5397 0.460261C21.8344 0.754961 22 1.15466 22 1.57143V4.71429C22 5.13105 21.8344 5.53075 21.5397 5.82545C21.245 6.12015 20.8453 6.28571 20.4286 6.28571H17.2857C16.8689 6.28571 16.4692 6.12015 16.1745 5.82545C15.8798 5.53075 15.7143 5.13105 15.7143 4.71429V1.57143ZM0 9.42857C0 9.0118 0.165561 8.6121 0.460261 8.3174C0.754961 8.0227 1.15466 7.85714 1.57143 7.85714H4.71429C5.13105 7.85714 5.53075 8.0227 5.82545 8.3174C6.12015 8.6121 6.28571 9.0118 6.28571 9.42857V12.5714C6.28571 12.9882 6.12015 13.3879 5.82545 13.6826C5.53075 13.9773 5.13105 14.1429 4.71429 14.1429H1.57143C1.15466 14.1429 0.754961 13.9773 0.460261 13.6826C0.165561 13.3879 0 12.9882 0 12.5714V9.42857ZM7.85714 9.42857C7.85714 9.0118 8.0227 8.6121 8.3174 8.3174C8.6121 8.0227 9.0118 7.85714 9.42857 7.85714H12.5714C12.9882 7.85714 13.3879 8.0227 13.6826 8.3174C13.9773 8.6121 14.1429 9.0118 14.1429 9.42857V12.5714C14.1429 12.9882 13.9773 13.3879 13.6826 13.6826C13.3879 13.9773 12.9882 14.1429 12.5714 14.1429H9.42857C9.0118 14.1429 8.6121 13.9773 8.3174 13.6826C8.0227 13.3879 7.85714 12.9882 7.85714 12.5714V9.42857ZM15.7143 9.42857C15.7143 9.0118 15.8798 8.6121 16.1745 8.3174C16.4692 8.0227 16.8689 7.85714 17.2857 7.85714H20.4286C20.8453 7.85714 21.245 8.0227 21.5397 8.3174C21.8344 8.6121 22 9.0118 22 9.42857V12.5714C22 12.9882 21.8344 13.3879 21.5397 13.6826C21.245 13.9773 20.8453 14.1429 20.4286 14.1429H17.2857C16.8689 14.1429 16.4692 13.9773 16.1745 13.6826C15.8798 13.3879 15.7143 12.9882 15.7143 12.5714V9.42857ZM0 17.2857C0 16.8689 0.165561 16.4692 0.460261 16.1745C0.754961 15.8798 1.15466 15.7143 1.57143 15.7143H4.71429C5.13105 15.7143 5.53075 15.8798 5.82545 16.1745C6.12015 16.4692 6.28571 16.8689 6.28571 17.2857V20.4286C6.28571 20.8453 6.12015 21.245 5.82545 21.5397C5.53075 21.8344 5.13105 22 4.71429 22H1.57143C1.15466 22 0.754961 21.8344 0.460261 21.5397C0.165561 21.245 0 20.8453 0 20.4286V17.2857ZM7.85714 17.2857C7.85714 16.8689 8.0227 16.4692 8.3174 16.1745C8.6121 15.8798 9.0118 15.7143 9.42857 15.7143H12.5714C12.9882 15.7143 13.3879 15.8798 13.6826 16.1745C13.9773 16.4692 14.1429 16.8689 14.1429 17.2857V20.4286C14.1429 20.8453 13.9773 21.245 13.6826 21.5397C13.3879 21.8344 12.9882 22 12.5714 22H9.42857C9.0118 22 8.6121 21.8344 8.3174 21.5397C8.0227 21.245 7.85714 20.8453 7.85714 20.4286V17.2857ZM15.7143 17.2857C15.7143 16.8689 15.8798 16.4692 16.1745 16.1745C16.4692 15.8798 16.8689 15.7143 17.2857 15.7143H20.4286C20.8453 15.7143 21.245 15.8798 21.5397 16.1745C21.8344 16.4692 22 16.8689 22 17.2857V20.4286C22 20.8453 21.8344 21.245 21.5397 21.5397C21.245 21.8344 20.8453 22 20.4286 22H17.2857C16.8689 22 16.4692 21.8344 16.1745 21.5397C15.8798 21.245 15.7143 20.8453 15.7143 20.4286V17.2857Z" fill="#F395A9"/>
</svg>
