<svg width="80" height="80" viewBox="0 0 80 80" fill="none" xmlns="http://www.w3.org/2000/svg">
<path d="M40 70C43.9397 70 47.8407 69.224 51.4805 67.7164C55.1203 66.2087 58.4274 63.999 61.2132 61.2132C63.999 58.4274 66.2087 55.1203 67.7164 51.4805C69.224 47.8407 70 43.9397 70 40C70 36.0603 69.224 32.1593 67.7164 28.5195C66.2087 24.8797 63.999 21.5726 61.2132 18.7868C58.4274 16.001 55.1203 13.7913 51.4805 12.2836C47.8407 10.776 43.9397 10 40 10C32.0435 10 24.4129 13.1607 18.7868 18.7868C13.1607 24.4129 10 32.0435 10 40C10 47.9565 13.1607 55.5871 18.7868 61.2132C24.4129 66.8393 32.0435 70 40 70ZM40 75C30.7174 75 21.815 71.3125 15.2513 64.7487C8.68749 58.185 5 49.2826 5 40C5 30.7174 8.68749 21.815 15.2513 15.2513C21.815 8.68749 30.7174 5 40 5C49.2826 5 58.185 8.68749 64.7487 15.2513C71.3125 21.815 75 30.7174 75 40C75 49.2826 71.3125 58.185 64.7487 64.7487C58.185 71.3125 49.2826 75 40 75Z" fill="#258884"/>
<path d="M58.2293 28.2302C58.6987 27.7608 59.3354 27.4971 59.9993 27.4971C60.6631 27.4971 61.2998 27.7608 61.7693 28.2302C62.2387 28.6997 62.5024 29.3364 62.5024 30.0002C62.5024 30.6641 62.2387 31.3008 61.7693 31.7702L39.2693 54.2702C39.037 54.503 38.7612 54.6878 38.4574 54.8138C38.1537 54.9398 37.8281 55.0047 37.4993 55.0047C37.1704 55.0047 36.8448 54.9398 36.5411 54.8138C36.2374 54.6878 35.9615 54.503 35.7293 54.2702L23.2293 41.7702C22.9968 41.5378 22.8124 41.2618 22.6866 40.9581C22.5608 40.6544 22.4961 40.3289 22.4961 40.0002C22.4961 39.6715 22.5608 39.346 22.6866 39.0423C22.8124 38.7386 22.9968 38.4627 23.2293 38.2302C23.4617 37.9978 23.7376 37.8134 24.0413 37.6876C24.345 37.5618 24.6705 37.4971 24.9993 37.4971C25.328 37.4971 25.6535 37.5618 25.9572 37.6876C26.2609 37.8134 26.5368 37.9978 26.7693 38.2302L37.4993 48.9652L58.2293 28.2302Z" fill="#258884"/>
</svg>
