<svg width="24" height="25" viewBox="0 0 24 25" fill="none" xmlns="http://www.w3.org/2000/svg">
<path d="M6.70711 9.07951C6.31658 8.68899 5.68342 8.68899 5.29289 9.07951C4.90237 9.47004 4.90237 10.1032 5.29289 10.4937L6.70711 9.07951ZM12 15.7866L11.2929 16.4937L12 17.2008L12.7071 16.4937L12 15.7866ZM18.7071 10.4937C19.0976 10.1032 19.0976 9.47004 18.7071 9.07952C18.3166 8.68899 17.6834 8.68899 17.2929 9.07952L18.7071 10.4937ZM5.29289 10.4937L11.2929 16.4937L12.7071 15.0795L6.70711 9.07951L5.29289 10.4937ZM12.7071 16.4937L18.7071 10.4937L17.2929 9.07952L11.2929 15.0795L12.7071 16.4937Z" fill="#258884"/>
</svg>
