<svg width="25" height="24" viewBox="0 0 25 24" fill="none" xmlns="http://www.w3.org/2000/svg">
<path d="M12.898 19.804L13.2664 20.5141H13.2664L12.898 19.804ZM12.102 19.804L11.7336 20.5141H11.7336L12.102 19.804ZM18.7 11C18.7 13.2183 17.5704 15.0361 16.187 16.4314C14.8044 17.826 13.2353 18.7278 12.5297 19.0938L13.2664 20.5141C14.0437 20.1109 15.7756 19.1189 17.3232 17.5579C18.8701 15.9976 20.3 13.7981 20.3 11H18.7ZM12.5 4.8C15.9242 4.8 18.7 7.57583 18.7 11H20.3C20.3 6.69218 16.8078 3.2 12.5 3.2V4.8ZM6.3 11C6.3 7.57583 9.07583 4.8 12.5 4.8V3.2C8.19218 3.2 4.7 6.69218 4.7 11H6.3ZM12.4703 19.0938C11.7647 18.7278 10.1956 17.826 8.813 16.4314C7.42964 15.0361 6.3 13.2183 6.3 11H4.7C4.7 13.7981 6.12988 15.9976 7.67676 17.5579C9.22439 19.1189 10.9563 20.1109 11.7336 20.5141L12.4703 19.0938ZM12.5297 19.0938C12.5154 19.1012 12.5058 19.1023 12.5 19.1023C12.4942 19.1023 12.4846 19.1012 12.4703 19.0938L11.7336 20.5141C12.2174 20.7651 12.7826 20.7651 13.2664 20.5141L12.5297 19.0938ZM14.7 11C14.7 12.215 13.715 13.2 12.5 13.2V14.8C14.5987 14.8 16.3 13.0987 16.3 11H14.7ZM12.5 8.8C13.715 8.8 14.7 9.78497 14.7 11H16.3C16.3 8.90132 14.5987 7.2 12.5 7.2V8.8ZM10.3 11C10.3 9.78497 11.285 8.8 12.5 8.8V7.2C10.4013 7.2 8.7 8.90132 8.7 11H10.3ZM12.5 13.2C11.285 13.2 10.3 12.215 10.3 11H8.7C8.7 13.0987 10.4013 14.8 12.5 14.8V13.2Z" fill="#1E1E1E"/>
</svg>
