<svg width="47" height="26" viewBox="0 0 47 26" fill="none" xmlns="http://www.w3.org/2000/svg">
<g clip-path="url(#clip0_3707_8589)">
<path d="M35.893 10.7364C35.7626 10.1018 35.0458 9.67874 34.0684 9.67874C33.7425 9.67874 33.4819 9.67874 33.1561 9.67874C32.5696 9.62586 32.4392 9.78451 32.4392 10.1547C32.4392 12.0055 32.4392 13.8035 32.4392 15.6543C32.4392 16.6061 31.2663 17.6109 29.8978 17.8224C25.5969 18.6156 21.296 19.356 16.9952 20.1492C16.539 20.2549 16.0177 20.2549 15.4964 20.2549C15.3009 20.2549 14.9751 20.1492 14.9099 19.9905C14.8447 19.8848 15.0402 19.6732 15.1705 19.5675C15.366 19.4617 15.6267 19.356 15.8874 19.2502C16.6693 19.0387 17.5165 18.8271 18.2985 18.6156C21.4915 17.7695 24.6846 16.9234 27.8777 16.0245C29.3113 15.6543 30.0933 14.8611 30.0933 13.8563C30.1585 10.6835 30.0933 7.45774 30.0933 4.28489C30.0933 3.75608 29.7675 3.33303 29.0507 3.12151C28.2035 2.8571 27.4215 3.06862 26.7047 3.33303C22.1432 5.0781 17.6468 6.82317 13.0853 8.56825C11.782 9.09705 11 9.83738 11 10.895C11 13.9092 11 16.9234 11 19.9376C11 20.0963 11 20.2549 11.0651 20.3607C11.5213 21.3654 12.6943 22 14.2582 22C17.4513 22 20.6444 22 23.8375 22C27.0305 22 30.1585 22 33.3515 22C34.0684 22 34.6548 21.8942 35.1761 21.5241C35.8278 21.101 35.8278 20.5193 35.8278 19.9905C35.8278 17.3889 35.893 10.7364 35.893 10.7364ZM22.5993 9.78451C22.9252 9.09706 23.642 8.67401 24.6846 8.56825C25.4014 8.51536 25.9879 8.83265 26.1182 9.36146C26.2486 10.1547 25.0756 11.1065 23.8375 11.1065C22.86 11.1065 22.2735 10.5248 22.5993 9.78451Z" fill="white"/>
</g>
<defs>
<clipPath id="clip0_3707_8589">
<rect width="47" height="26" fill="white"/>
</clipPath>
</defs>
</svg>
