<?xml version="1.0" encoding="utf-8"?><svg viewBox="0 0 49 25" xmlns="http://www.w3.org/2000/svg" xmlns:xlink="http://www.w3.org/1999/xlink"><style>:root>svg{display:none}:root>svg:target{display:block}</style><svg fill="none" viewBox="0 0 24 24" id="attention-black" xmlns="http://www.w3.org/2000/svg"><path d="M13.736 2.152a10 10 0 11-3.473 19.697 10 10 0 013.473-19.697h0z" stroke="#1E1E1E" stroke-width="1.6"/><path d="M12 12V6M12 17v1" stroke="#1E1E1E" stroke-width="1.6" stroke-linecap="square"/></svg><svg fill="none" viewBox="0 0 20 20" id="attention-red" xmlns="http://www.w3.org/2000/svg"><path d="M8.552 1.793a8.333 8.333 0 102.894 16.414A8.333 8.333 0 008.552 1.793h0z" stroke="#FF2828"/><path d="M10 10V5M10 14.166V15" stroke="#FF2828" stroke-linecap="square"/></svg><svg fill="none" viewBox="0 0 24 25" id="back" xmlns="http://www.w3.org/2000/svg"><path d="M10 6.5l-6 6m0 0l6 6m-6-6h15" stroke="#1E1E1E" stroke-width="1.6" stroke-linecap="round" stroke-linejoin="round"/></svg><svg fill="none" viewBox="0 0 24 24" id="calendar" xmlns="http://www.w3.org/2000/svg"><path d="M3 10c0-1.886 0-2.828.586-3.414C4.172 6 5.114 6 7 6h10c1.886 0 2.828 0 3.414.586C21 7.172 21 8.114 21 10v0H3v0z" stroke="#1E1E1E" stroke-width="1.6"/><rect x="3" y="6" width="18" height="15" rx="2" stroke="#1E1E1E" stroke-width="1.6"/><path d="M7 3v3M17 3v3" stroke="#1E1E1E" stroke-width="1.6" stroke-linecap="round"/><rect x="7" y="12" width="4" height="2" rx=".5" fill="#1E1E1E"/><rect x="7" y="16" width="4" height="2" rx=".5" fill="#1E1E1E"/><rect x="13" y="12" width="4" height="2" rx=".5" fill="#1E1E1E"/><rect x="13" y="16" width="4" height="2" rx=".5" fill="#1E1E1E"/></svg><svg fill="none" viewBox="0 0 24 24" id="cart" xmlns="http://www.w3.org/2000/svg"><path d="M8 11V7a4 4 0 014-4v0a4 4 0 014 4v4" stroke="#1E1E1E" stroke-width="2" stroke-linecap="round"/><path d="M3.694 12.668c.145-1.741.218-2.611.792-3.14C5.06 9 5.934 9 7.681 9h8.639c1.746 0 2.62 0 3.194.528.574.528.647 1.399.792 3.14l.514 6.166c.084 1.013.126 1.52-.17 1.843-.298.323-.806.323-1.824.323H5.174c-1.017 0-1.526 0-1.823-.323-.297-.323-.255-.83-.17-1.843l.513-6.166z" stroke="#1E1E1E" stroke-width="2"/></svg><svg fill="none" viewBox="0 0 24 24" id="cash" xmlns="http://www.w3.org/2000/svg"><path d="M3 6.5v0A2.5 2.5 0 015.5 4h13.786c.2 0 .299 0 .38.028a.5.5 0 01.306.307c.028.08.028.18.028.38v0c0 1.196 0 1.795-.168 2.276a3 3 0 01-1.841 1.84C17.51 9 16.91 9 15.714 9H15M3 6.5v0A2.5 2.5 0 005.5 9H19c.943 0 1.414 0 1.707.293C21 9.586 21 10.057 21 11v2M3 6.5V17c0 1.886 0 2.828.586 3.414C4.172 21 5.114 21 7 21h12c.943 0 1.414 0 1.707-.293C21 20.414 21 19.943 21 19v-2m0 0h-4c-.943 0-1.414 0-1.707-.293C15 16.414 15 15.943 15 15v0c0-.943 0-1.414.293-1.707C15.586 13 16.057 13 17 13h4m0 4v-4" stroke="#1E1E1E" stroke-width="1.6"/></svg><svg fill="none" viewBox="0 0 25 24" id="catalog" xmlns="http://www.w3.org/2000/svg"><mask id="aga" fill="#fff"><path d="M1.5 2.957a1.571 1.571 0 011.571-1.571h3.143a1.571 1.571 0 011.572 1.571V6.1a1.571 1.571 0 01-1.572 1.571H3.071A1.571 1.571 0 011.5 6.1V2.957zm7.857 0a1.571 1.571 0 011.572-1.571h3.142a1.571 1.571 0 011.572 1.571V6.1a1.571 1.571 0 01-1.572 1.571H10.93A1.571 1.571 0 019.357 6.1V2.957zm7.857 0a1.571 1.571 0 011.572-1.571h3.143A1.571 1.571 0 0123.5 2.957V6.1a1.571 1.571 0 01-1.571 1.571h-3.143A1.571 1.571 0 0117.214 6.1V2.957zM1.5 10.814a1.571 1.571 0 011.571-1.571h3.143a1.571 1.571 0 011.572 1.571v3.143a1.571 1.571 0 01-1.572 1.572H3.071A1.571 1.571 0 011.5 13.957v-3.143zm7.857 0a1.571 1.571 0 011.572-1.571h3.142a1.571 1.571 0 011.572 1.571v3.143a1.571 1.571 0 01-1.572 1.572H10.93a1.571 1.571 0 01-1.572-1.572v-3.143zm7.857 0a1.571 1.571 0 011.572-1.571h3.143a1.571 1.571 0 011.571 1.571v3.143a1.571 1.571 0 01-1.571 1.572h-3.143a1.571 1.571 0 01-1.572-1.572v-3.143zM1.5 18.672A1.571 1.571 0 013.071 17.1h3.143a1.571 1.571 0 011.572 1.572v3.142a1.571 1.571 0 01-1.572 1.572H3.071A1.571 1.571 0 011.5 21.814v-3.142zm7.857 0A1.571 1.571 0 0110.93 17.1h3.142a1.571 1.571 0 011.572 1.572v3.142a1.571 1.571 0 01-1.572 1.572H10.93a1.571 1.571 0 01-1.572-1.572v-3.142zm7.857 0a1.571 1.571 0 011.572-1.572h3.143a1.571 1.571 0 011.571 1.572v3.142a1.571 1.571 0 01-1.571 1.572h-3.143a1.571 1.571 0 01-1.572-1.572v-3.142z"/></mask><path d="M1.5 2.957a1.571 1.571 0 011.571-1.571h3.143a1.571 1.571 0 011.572 1.571V6.1a1.571 1.571 0 01-1.572 1.571H3.071A1.571 1.571 0 011.5 6.1V2.957zm7.857 0a1.571 1.571 0 011.572-1.571h3.142a1.571 1.571 0 011.572 1.571V6.1a1.571 1.571 0 01-1.572 1.571H10.93A1.571 1.571 0 019.357 6.1V2.957zm7.857 0a1.571 1.571 0 011.572-1.571h3.143A1.571 1.571 0 0123.5 2.957V6.1a1.571 1.571 0 01-1.571 1.571h-3.143A1.571 1.571 0 0117.214 6.1V2.957zM1.5 10.814a1.571 1.571 0 011.571-1.571h3.143a1.571 1.571 0 011.572 1.571v3.143a1.571 1.571 0 01-1.572 1.572H3.071A1.571 1.571 0 011.5 13.957v-3.143zm7.857 0a1.571 1.571 0 011.572-1.571h3.142a1.571 1.571 0 011.572 1.571v3.143a1.571 1.571 0 01-1.572 1.572H10.93a1.571 1.571 0 01-1.572-1.572v-3.143zm7.857 0a1.571 1.571 0 011.572-1.571h3.143a1.571 1.571 0 011.571 1.571v3.143a1.571 1.571 0 01-1.571 1.572h-3.143a1.571 1.571 0 01-1.572-1.572v-3.143zM1.5 18.672A1.571 1.571 0 013.071 17.1h3.143a1.571 1.571 0 011.572 1.572v3.142a1.571 1.571 0 01-1.572 1.572H3.071A1.571 1.571 0 011.5 21.814v-3.142zm7.857 0A1.571 1.571 0 0110.93 17.1h3.142a1.571 1.571 0 011.572 1.572v3.142a1.571 1.571 0 01-1.572 1.572H10.93a1.571 1.571 0 01-1.572-1.572v-3.142zm7.857 0a1.571 1.571 0 011.572-1.572h3.143a1.571 1.571 0 011.571 1.572v3.142a1.571 1.571 0 01-1.571 1.572h-3.143a1.571 1.571 0 01-1.572-1.572v-3.142z" stroke="#1E1E1E" stroke-width="3.2" mask="url(#aga)"/></svg><svg fill="none" viewBox="0 0 24 24" id="clock" xmlns="http://www.w3.org/2000/svg"><circle cx="12" cy="12" r="9" stroke="#1E1E1E" stroke-width="2"/><path d="M16.5 12h-4.25a.25.25 0 01-.25-.25V8.5" stroke="#1E1E1E" stroke-width="2" stroke-linecap="round"/></svg><svg fill="none" viewBox="0 0 24 24" id="close" xmlns="http://www.w3.org/2000/svg"><path d="M18 6L6 18M6 6l12 12" stroke="#1E1E1E" stroke-width="2" stroke-linecap="round" stroke-linejoin="round"/></svg><svg fill="none" viewBox="0 0 49 24" id="credit-card-blue" xmlns="http://www.w3.org/2000/svg"><path d="M34.6 19H15.4c-.77 0-1.4-.633-1.4-1.407V6.407C14 5.633 14.63 5 15.4 5h19.2c.77 0 1.4.633 1.4 1.407v11.186c0 .774-.63 1.407-1.4 1.407z" fill="#BAD6EB"/><path d="M14 7h22v3H14V7z" fill="#424242"/><path d="M34.656 14H15.345c-.19 0-.345-.133-.345-.299V12.3c0-.164.154-.299.345-.299h19.31c.19 0 .345.133.345.299V13.7c-.002.164-.156.299-.344.299z" fill="#fff"/></svg><svg fill="none" viewBox="0 0 49 24" id="credit-card-yellow" xmlns="http://www.w3.org/2000/svg"><path d="M34.6 19H15.4c-.77 0-1.4-.633-1.4-1.407V6.407C14 5.633 14.63 5 15.4 5h19.2c.77 0 1.4.633 1.4 1.407v11.186c0 .774-.63 1.407-1.4 1.407z" fill="#FFC107"/><path d="M14 7h22v3H14V7z" fill="#424242"/><path d="M34.656 14H15.345c-.19 0-.345-.133-.345-.299V12.3c0-.164.154-.299.345-.299h19.31c.19 0 .345.133.345.299V13.7c-.002.164-.156.299-.344.299z" fill="#fff"/></svg><svg fill="none" viewBox="0 0 24 24" id="edit" xmlns="http://www.w3.org/2000/svg"><path d="M14.182 6.91L4 17.09V20h2.91L17.09 9.818 14.183 6.91zM18.546 8.364l-2.91-2.91L17.091 4 20 6.91l-1.454 1.454z" stroke="#1E1E1E" stroke-width="1.6" stroke-linejoin="round"/></svg><svg fill="none" viewBox="0 0 24 24" id="email" xmlns="http://www.w3.org/2000/svg"><rect x="4" y="6" width="16" height="12" rx="2" stroke="#1E1E1E" stroke-width="2"/><path d="M4 8l7.106 3.553a2 2 0 001.788 0L20 8" stroke="#1E1E1E" stroke-width="2"/></svg><svg fill="none" viewBox="0 0 24 24" id="favorite" xmlns="http://www.w3.org/2000/svg"><path d="M4.45 13.908l6.953 6.531c.24.225.36.338.5.366a.5.5 0 00.193 0c.142-.028.261-.14.5-.366l6.953-6.53a5.203 5.203 0 00.549-6.983l-.31-.399c-1.968-2.536-5.918-2.111-7.301.787a.54.54 0 01-.974 0C10.13 4.416 6.18 3.99 4.212 6.527l-.31.4a5.203 5.203 0 00.549 6.981z" stroke="#1E1E1E" stroke-width="2"/></svg><svg fill="none" viewBox="0 0 24 24" id="file" xmlns="http://www.w3.org/2000/svg"><path d="M13.172 3H9c-1.886 0-2.828 0-3.414.586C5 4.172 5 5.114 5 7v10c0 1.886 0 2.828.586 3.414C6.172 21 7.114 21 9 21h6c1.886 0 2.828 0 3.414-.586C19 19.828 19 18.886 19 17V8.828c0-.408 0-.613-.076-.796-.076-.184-.22-.329-.51-.618l-3.828-3.828c-.29-.29-.434-.434-.617-.51C13.785 3 13.58 3 13.171 3z" stroke="#1E1E1E" stroke-width="2"/><path d="M13 3v4c0 .943 0 1.414.293 1.707C13.586 9 14.057 9 15 9h4" stroke="#1E1E1E" stroke-width="2"/></svg><svg fill="none" viewBox="0 0 24 24" id="file-doc" xmlns="http://www.w3.org/2000/svg"><path d="M20 12.889V14c0 2.828 0 4.243-.879 5.121C18.243 20 16.828 20 14 20H8c-2.828 0-4.243 0-5.121-.879C2 18.243 2 16.828 2 14v-4c0-2.828 0-4.243.879-5.121C3.757 4 5.172 4 8 4h6M19 4v6M22 7h-6M6 14h6" stroke="#1E1E1E" stroke-width="1.2" stroke-linecap="round"/></svg><svg fill="none" viewBox="0 0 24 24" id="filter" xmlns="http://www.w3.org/2000/svg"><path d="M10 8h10M4 16h10" stroke="#fff" stroke-width="1.6" stroke-linecap="round"/><circle cx="7" cy="8" transform="rotate(90 7 8)" stroke="#fff" stroke-width="1.6" stroke-linecap="round" r="3"/><circle cx="17" cy="16" transform="rotate(90 17 16)" stroke="#fff" stroke-width="1.6" stroke-linecap="round" r="3"/></svg><svg fill="none" viewBox="0 0 25 25" id="gift" xmlns="http://www.w3.org/2000/svg"><path d="M3.5 10.013c0-.943 0-1.415.293-1.707.293-.293.764-.293 1.707-.293h14c.943 0 1.414 0 1.707.293.293.292.293.764.293 1.707v1.5c0 .466 0 .699-.076.882a1 1 0 01-.541.542c-.184.076-.417.076-.883.076v0c-.466 0-.699 0-.883.076a1 1 0 00-.54.541c-.077.184-.077.417-.077.883v3.5c0 .942 0 1.414-.293 1.707-.293.293-.764.293-1.707.293h-8c-.943 0-1.414 0-1.707-.293-.293-.293-.293-.764-.293-1.707v-3.5c0-.466 0-.7-.076-.883a1 1 0 00-.541-.541c-.184-.076-.417-.076-.883-.076v0c-.466 0-.699 0-.883-.076a1 1 0 01-.54-.542c-.077-.183-.077-.416-.077-.882v-1.5z" stroke="#1E1E1E" stroke-width="1.6"/><path d="M5.5 13.013h14M12.5 7.013v13M12.5 7.013l-.879-.879a9.713 9.713 0 00-3.796-2.346v0A1.766 1.766 0 005.5 5.463v.182c0 .817.523 1.542 1.297 1.8l1.703.568M12.5 7.013l.879-.879a9.713 9.713 0 013.796-2.346v0A1.766 1.766 0 0119.5 5.463v.182c0 .817-.523 1.542-1.297 1.8l-1.703.568" stroke="#1E1E1E" stroke-width="1.6" stroke-linecap="round"/></svg><svg fill="none" viewBox="0 0 25 24" id="gift-white" xmlns="http://www.w3.org/2000/svg"><path d="M3.75 10c0-.943 0-1.414.293-1.707C4.336 8 4.807 8 5.75 8h14c.943 0 1.414 0 1.707.293.293.293.293.764.293 1.707v1.5c0 .466 0 .699-.076.883a1 1 0 01-.541.54c-.184.077-.417.077-.883.077v0c-.466 0-.699 0-.883.076a1 1 0 00-.54.541c-.077.184-.077.417-.077.883V18c0 .943 0 1.414-.293 1.707-.293.293-.764.293-1.707.293h-8c-.943 0-1.414 0-1.707-.293-.293-.293-.293-.764-.293-1.707v-3.5c0-.466 0-.699-.076-.883a1 1 0 00-.541-.54C5.949 13 5.716 13 5.25 13v0c-.466 0-.699 0-.883-.076a1 1 0 01-.54-.541c-.077-.184-.077-.417-.077-.883V10z" stroke="#fff" stroke-width="1.6"/><path d="M5.75 13h14M12.75 7v13M12.75 7l-.879-.879a9.713 9.713 0 00-3.796-2.346v0A1.766 1.766 0 005.75 5.45v.182c0 .817.523 1.542 1.297 1.8L8.75 8M12.75 7l.879-.879a9.714 9.714 0 013.796-2.346v0A1.766 1.766 0 0119.75 5.45v.182c0 .817-.523 1.542-1.297 1.8L16.75 8" stroke="#fff" stroke-width="1.6" stroke-linecap="round"/></svg><svg fill="none" viewBox="0 0 25 24" id="home" xmlns="http://www.w3.org/2000/svg"><path d="M4.875 21V10.2l8-7.2 8 7.2V21h-5.539v-6h-4.922v6H4.875z" stroke="#000" stroke-width="1.6" stroke-linejoin="round"/></svg><svg fill="none" viewBox="0 0 24 24" id="layers" xmlns="http://www.w3.org/2000/svg"><path d="M12 4L5 7l7 3 7-3-7-3z" stroke="#1E1E1E" stroke-width="1.6" stroke-linejoin="round"/><path fill-rule="evenodd" clip-rule="evenodd" d="M7.28 10.153l-2.595 1.112a.8.8 0 000 1.47l7 3a.8.8 0 00.63 0l7-3a.8.8 0 000-1.47l-2.594-1.112-2.031.87 2.28.977L12 14.13 7.03 12l2.28-.977-2.03-.87z" fill="#1E1E1E"/><path fill-rule="evenodd" clip-rule="evenodd" d="M7.28 15.153l-2.595 1.112a.8.8 0 000 1.47l7 3a.8.8 0 00.63 0l7-3a.8.8 0 000-1.47l-2.594-1.112-2.031.87 2.28.977L12 19.13 7.03 17l2.28-.977-2.03-.87z" fill="#1E1E1E"/></svg><svg fill="none" viewBox="0 0 24 24" id="minus" xmlns="http://www.w3.org/2000/svg"><path d="M18 12H6" stroke="#1E1E1E" stroke-width="2" stroke-linecap="round"/></svg><svg fill="none" viewBox="0 0 24 24" id="notification" xmlns="http://www.w3.org/2000/svg"><path d="M14.226 17.538v.693c0 .734-.288 1.439-.799 1.958a2.703 2.703 0 01-1.926.811 2.703 2.703 0 01-1.927-.811 2.792 2.792 0 01-.798-1.958v-.693M18.81 16.13c-1.093-1.36-1.865-2.052-1.865-5.801 0-3.434-1.725-4.657-3.145-5.251a.766.766 0 01-.424-.457C13.127 3.76 12.429 3 11.501 3c-.929 0-1.627.76-1.874 1.621a.758.758 0 01-.424.456c-1.421.595-3.145 1.814-3.145 5.25-.002 3.75-.774 4.442-1.867 5.802-.453.563-.056 1.41.736 1.41h13.151c.788 0 1.183-.849.732-1.41z" stroke="#1E1E1E" stroke-width="1.6" stroke-linecap="round" stroke-linejoin="round"/></svg><svg fill="none" viewBox="0 0 24 24" id="phone" xmlns="http://www.w3.org/2000/svg"><path d="M17.707 13.707l2.648 2.648a.912.912 0 010 1.29 5.471 5.471 0 01-7.151.508l-1.575-1.182a22.996 22.996 0 01-4.6-4.6l-1.182-1.575a5.471 5.471 0 01.508-7.151.912.912 0 011.29 0l2.648 2.648a1 1 0 010 1.414L9.272 8.728a.533.533 0 00-.1.616 12.262 12.262 0 005.484 5.484.533.533 0 00.616-.1l1.02-1.02a1 1 0 011.415 0z" stroke="#1E1E1E" stroke-width="2"/></svg><svg fill="none" viewBox="0 0 25 24" id="phone-white" xmlns="http://www.w3.org/2000/svg"><path d="M18.18 13.707l2.648 2.648a.912.912 0 010 1.29 5.471 5.471 0 01-7.151.508L12.1 16.971a22.998 22.998 0 01-4.6-4.6L6.32 10.796a5.471 5.471 0 01.508-7.151.912.912 0 011.29 0l2.647 2.648a1 1 0 010 1.414l-1.02 1.021a.533.533 0 00-.1.616 12.263 12.263 0 005.484 5.484.533.533 0 00.615-.1l1.021-1.02a1 1 0 011.415 0z" stroke="#fff" stroke-width="2"/></svg><svg fill="none" viewBox="0 0 24 25" id="pin" xmlns="http://www.w3.org/2000/svg"><path d="M12.398 20.375l.368.71-.368-.71zm-.796 0l-.368.71.368-.71zm6.598-8.804c0 2.219-1.13 4.036-2.513 5.432-1.383 1.394-2.952 2.296-3.657 2.662l.736 1.42c.778-.403 2.51-1.395 4.057-2.956 1.547-1.56 2.977-3.76 2.977-6.558h-1.6zm-6.2-6.2a6.2 6.2 0 016.2 6.2h1.6a7.8 7.8 0 00-7.8-7.8v1.6zm-6.2 6.2a6.2 6.2 0 016.2-6.2v-1.6a7.8 7.8 0 00-7.8 7.8h1.6zm6.17 8.094c-.705-.366-2.274-1.268-3.657-2.662C6.93 15.607 5.8 13.79 5.8 11.57H4.2c0 2.798 1.43 4.998 2.977 6.558 1.547 1.561 3.28 2.553 4.057 2.956l.736-1.42zm.06 0a.064.064 0 01-.03.009.064.064 0 01-.03-.009l-.736 1.42a1.654 1.654 0 001.532 0l-.736-1.42zm2.17-8.094a2.2 2.2 0 01-2.2 2.2v1.6a3.8 3.8 0 003.8-3.8h-1.6zm-2.2-2.2a2.2 2.2 0 012.2 2.2h1.6a3.8 3.8 0 00-3.8-3.8v1.6zm-2.2 2.2a2.2 2.2 0 012.2-2.2v-1.6a3.8 3.8 0 00-3.8 3.8h1.6zm2.2 2.2a2.2 2.2 0 01-2.2-2.2H8.2a3.8 3.8 0 003.8 3.8v-1.6z" fill="#1E1E1E"/></svg><svg fill="none" viewBox="0 0 24 24" id="plus" xmlns="http://www.w3.org/2000/svg"><path d="M12 6v12M18 12H6" stroke="#1E1E1E" stroke-width="2" stroke-linecap="round"/></svg><svg fill="none" viewBox="0 0 25 24" id="plus-green" xmlns="http://www.w3.org/2000/svg"><path d="M12.5 6v12M18.5 12h-12" stroke="#258884" stroke-width="1.6" stroke-linecap="round"/></svg><svg fill="none" viewBox="0 0 24 24" id="search" xmlns="http://www.w3.org/2000/svg"><circle cx="11" cy="11" r="6" stroke="#1E1E1E" stroke-width="2"/><path d="M19 20l-3-3" stroke="#1E1E1E" stroke-width="2" stroke-linecap="round"/></svg><svg fill="none" viewBox="0 0 24 24" id="search-gray" xmlns="http://www.w3.org/2000/svg"><circle cx="11" cy="11" r="6" stroke="#535353" stroke-width="2"/><path d="M19 20l-3-3" stroke="#535353" stroke-width="2" stroke-linecap="round"/></svg><svg fill="none" viewBox="0 0 19 18" id="star" xmlns="http://www.w3.org/2000/svg"><path d="M9.5 14.726L3.63 18l1.31-6.574L0 6.876l6.682-.79L9.5 0l2.819 6.086 6.681.79-4.94 4.55L15.37 18 9.5 14.726z" fill="#FAD245"/></svg><svg fill="none" viewBox="0 0 24 24" id="sun" xmlns="http://www.w3.org/2000/svg"><circle cx="12" cy="12" r="3" stroke="#1E1E1E" stroke-width="2"/><path d="M12 5V3M12 21v-2M16.95 7.05l1.414-1.414M5.636 18.364L7.05 16.95M18 12h2M3 12h2M16.95 16.95l1.414 1.414M5.636 5.636L7.05 7.05" stroke="#1E1E1E" stroke-width="2" stroke-linecap="round"/></svg><svg fill="none" viewBox="0 0 24 24" id="trash" xmlns="http://www.w3.org/2000/svg"><path d="M10 15v-3M14 15v-3M3 7h18v0c-.932 0-1.398 0-1.765.152a2 2 0 00-1.083 1.083C18 8.602 18 9.068 18 10v6c0 1.886 0 2.828-.586 3.414C16.828 20 15.886 20 14 20h-4c-1.886 0-2.828 0-3.414-.586C6 18.828 6 17.886 6 16v-6c0-.932 0-1.398-.152-1.765a2 2 0 00-1.083-1.083C4.398 7 3.932 7 3 7v0zM10.068 3.37c.114-.106.365-.2.715-.267A6.68 6.68 0 0112 3c.44 0 .868.036 1.217.103.35.067.6.161.715.268" stroke="#1E1E1E" stroke-width="1.6" stroke-linecap="round"/></svg><svg fill="none" viewBox="0 0 24 24" id="truck" xmlns="http://www.w3.org/2000/svg"><path d="M8 20a2 2 0 100-4 2 2 0 000 4v0zm10 0a2 2 0 100-4 2 2 0 000 4v0z" stroke="#1E1E1E" stroke-width="1.6" stroke-miterlimit="1.5" stroke-linecap="round" stroke-linejoin="round"/><path d="M10.05 18H15V5.6a.6.6 0 00-.6-.6H1m4.65 13H3.6a.6.6 0 01-.6-.6v-4.9" stroke="#1E1E1E" stroke-width="1.6" stroke-linecap="round"/><path d="M2 9h4" stroke="#1E1E1E" stroke-width="1.6" stroke-linecap="round" stroke-linejoin="round"/><path d="M15 9h5.61a.6.6 0 01.548.356l1.79 5.028a.6.6 0 01.052.243V17.4a.6.6 0 01-.6.6h-1.9M15 18h1" stroke="#1E1E1E" stroke-width="1.6" stroke-linecap="round"/></svg><svg fill="none" viewBox="0 0 24 24" id="user" xmlns="http://www.w3.org/2000/svg"><path d="M19.727 20.447c-.455-1.276-1.46-2.403-2.857-3.207C15.473 16.436 13.761 16 12 16c-1.761 0-3.473.436-4.87 1.24-1.397.804-2.402 1.931-2.857 3.207" stroke="#1E1E1E" stroke-width="2" stroke-linecap="round"/><circle cx="12" cy="8" r="4" stroke="#1E1E1E" stroke-width="2" stroke-linecap="round"/></svg></svg>