<svg width="1920" height="768" viewBox="0 0 1920 768" fill="none" xmlns="http://www.w3.org/2000/svg">
<g clip-path="url(#clip0_4453_13788)">
<rect width="1920" height="768" fill="#FEFAFB"/>
<path d="M1337.5 703C1246.3 733 1257.83 783.166 1275 804.5C1387.33 831.666 1606.3 863.8 1583.5 775C1555 664 1451.5 665.5 1337.5 703Z" fill="#F9EDF0"/>
<path d="M1618.55 10.1035C1587.75 4.50352 1581.38 -11.5632 1582.05 -18.8965C1582.05 -121.896 1734.78 -133.914 1804 -120.541C1867.95 -108.186 2016.55 -75.5 2016.55 115.604C2016.55 247.304 1905.55 290.103 1893.05 296.603C1880.55 303.103 1794.55 330.603 1770.05 190.603C1745.55 50.6035 1657.05 17.1035 1618.55 10.1035Z" fill="#EEF651"/>
<path d="M1481.1 81.9396C1380.54 57.5599 1416.1 -96.0603 1416.1 -96.0603C1416.1 -96.0603 1443.8 -184.86 1516.6 -252.06C1607.6 -336.06 1664.54 -297.879 1680.04 -276.879C1695.54 -255.879 1680.04 -200.379 1632.54 -189.879C1585.04 -179.379 1583.66 -136.362 1596.54 -115.879C1629.97 -62.6983 1654.35 -62.4747 1647.1 -12.5604C1636.39 61.2621 1587.04 107.621 1481.1 81.9396Z" fill="#1F5469"/>
<ellipse cx="221.315" cy="685.821" rx="41.5" ry="66.8778" transform="rotate(-47.3865 221.315 685.821)" fill="#258884"/>
<path d="M21.5 383.5C29.1 310.3 -12.3333 294 -34 295L-48 653.5C-19.3333 656.667 43.3 661.1 64.5 653.5C91 644 124 617.5 70 563.5C16 509.5 12 475 21.5 383.5Z" fill="#EEF651"/>
<path d="M-65.4997 751.5C13.3003 723.5 39.3336 763.166 42.5003 786.5L-102 836C-122.666 819.5 -144.3 779.5 -65.4997 751.5Z" fill="#1F5469"/>
<path d="M1853.5 606.5C1893.1 545.3 1931.33 573.334 1945.5 595L1972.5 800.5H1745C1834 744.5 1804 683 1853.5 606.5Z" fill="#F9EDF0"/>
<path d="M270.5 726.5C219.7 703.3 148 768.834 118.5 804.5H328.5C330.333 788.167 321.3 749.7 270.5 726.5Z" fill="#F395A9"/>
</g>
<defs>
<clipPath id="clip0_4453_13788">
<rect width="1920" height="768" fill="white"/>
</clipPath>
</defs>
</svg>
