<svg width="1920" height="823" viewBox="0 0 1920 823" fill="none" xmlns="http://www.w3.org/2000/svg">
<rect width="1918" height="616" transform="translate(1 164)" fill="url(#paint0_linear_4101_11135)"/>
<path d="M902.5 783.002C864.58 735.221 802.5 544.892 702.941 582.088C631.581 608.75 650.017 716.561 537.051 783.004C429.878 846.04 356.162 806.708 343 802.454" stroke="white" stroke-width="8"/>
<mask id="mask0_4101_11135" style="mask-type:alpha" maskUnits="userSpaceOnUse" x="637" y="499" width="522" height="281">
<rect x="637" y="499" width="522" height="281" fill="#D9D9D9"/>
</mask>
<g mask="url(#mask0_4101_11135)">
<g filter="url(#filter0_b_4101_11135)">
<path d="M973.852 768.261C1031.46 802.815 985.578 847.968 996.532 873.314L857.032 968.972C804.362 952.367 714.76 872.079 732.178 817.627C746.145 773.963 802.319 711.361 833.693 717.994C865.066 724.626 878.262 751.654 902.341 757.669C932.951 765.316 941.173 748.661 973.852 768.261Z" fill="#F395A9"/>
</g>
<path d="M724.748 738.513C711.98 750.037 722.963 772.192 730.05 781.829C748.972 788.782 785.48 809.177 786.301 802.156L786.343 801.794C788.158 786.277 789.585 774.075 781.23 760.677C769.814 742.373 740.708 724.108 724.748 738.513Z" fill="#258884"/>
</g>
<path d="M1681.94 0.241984C1680.72 78.824 1696.75 240.598 1771.06 265.95C1863.96 297.639 1930.14 144.812 2096.97 170.823C2255.26 195.5 2300.08 325.213 2309.73 340.199" stroke="white" stroke-width="8"/>
<path d="M41.2397 453.8C53.0968 432.002 46.5437 398.222 38.601 386.063C30.6579 373.904 10.1315 362.966 -0.352446 368.229C-2.85647 409.304 -1.65067 476.649 -1.82057 490.838C-1.88649 496.344 24.7802 484.059 41.2397 453.8Z" fill="#EEF651"/>
<path d="M61.828 351.675C58.6526 311.599 4.44721 274.773 -15.2918 258.999L-16.9143 394.501C-9.95197 397.57 8.93369 403.418 28.7777 402.266C50.0846 400.761 64.3607 383.641 61.828 351.675Z" fill="#1F5469"/>
<defs>
<filter id="filter0_b_4101_11135" x="699.967" y="687.507" width="333.605" height="311.465" filterUnits="userSpaceOnUse" color-interpolation-filters="sRGB">
<feFlood flood-opacity="0" result="BackgroundImageFix"/>
<feGaussianBlur in="BackgroundImageFix" stdDeviation="15"/>
<feComposite in2="SourceAlpha" operator="in" result="effect1_backgroundBlur_4101_11135"/>
<feBlend mode="normal" in="SourceGraphic" in2="effect1_backgroundBlur_4101_11135" result="shape"/>
</filter>
<linearGradient id="paint0_linear_4101_11135" x1="959" y1="0" x2="959" y2="616" gradientUnits="userSpaceOnUse">
<stop stop-color="white"/>
<stop offset="1" stop-color="#FDF9F9"/>
</linearGradient>
</defs>
</svg>
