<svg width="191" height="190" viewBox="0 0 191 190" fill="none" xmlns="http://www.w3.org/2000/svg">
<g opacity="0.2" filter="url(#filter0_b_3707_8159)">
<path d="M151.213 183.315C219.22 210.704 230.231 145.474 260 139.465L256.146 -33.9884C207.409 -67.9825 77.8278 -94.7234 40.1873 -47.6717C10.0038 -9.94141 -10.0412 74.292 16.0676 96.4873C42.1763 118.683 74.8945 113.538 95.7621 130.02C122.289 150.974 112.636 167.778 151.213 183.315Z" fill="#F6DFE3"/>
</g>
<path d="M174.165 99.5733C166.883 96.6114 168.149 85.3798 169.692 80.1342C176.739 74.1977 189.248 59.7448 190.695 62.6337L190.769 62.7825C193.967 69.1671 196.482 74.188 194.98 81.2471C192.927 90.8915 183.267 103.276 174.165 99.5733Z" fill="#1F5469"/>
<path d="M152.726 76.0698C190.936 91.8329 198.618 65.1317 197.683 49.8107L155.233 23.209C155.233 23.209 117.144 46.973 101.567 53.1767C85.9912 59.3805 107.593 77.021 107.593 77.021C107.593 77.021 114.516 60.3067 152.726 76.0698Z" fill="#258884"/>
<path d="M27.4061 55.9029C23.5148 53.6331 3.75056 50.7319 1.23741 52.596C-4.2753 56.163 10.2194 71.3862 13.7054 73.4938C18.0516 76.1216 22.2177 75.034 25.8658 71.0619C29.5139 67.0898 32.2702 58.7401 27.4061 55.9029Z" fill="#F395A9"/>
<path d="M152.166 172.974C149.436 171.062 146.079 172.292 144.316 173.862C140.448 176.867 140.106 186.017 142.552 187.793C145.602 190.006 148.525 189.09 151.085 185.744C153.645 182.398 155.579 175.364 152.166 172.974Z" fill="#EEF651"/>
<defs>
<filter id="filter0_b_3707_8159" x="-26" y="-103" width="316" height="323" filterUnits="userSpaceOnUse" color-interpolation-filters="sRGB">
<feFlood flood-opacity="0" result="BackgroundImageFix"/>
<feGaussianBlur in="BackgroundImageFix" stdDeviation="15"/>
<feComposite in2="SourceAlpha" operator="in" result="effect1_backgroundBlur_3707_8159"/>
<feBlend mode="normal" in="SourceGraphic" in2="effect1_backgroundBlur_3707_8159" result="shape"/>
</filter>
</defs>
</svg>
