<svg width="1014" height="424" viewBox="0 0 1014 424" fill="none" xmlns="http://www.w3.org/2000/svg">
<g opacity="0.2" filter="url(#filter0_b_3707_9738)">
<path d="M588.301 391.41C861.925 463.475 906.224 291.845 1026 276.033L1010.49 -180.354C814.404 -269.798 293.042 -340.158 141.597 -216.357C20.1558 -117.082 -51.3937 49.8693 44.5532 162.951C140.5 276.033 281.24 207.814 365.199 251.183C471.929 306.315 433.09 350.531 588.301 391.41Z" fill="#F6DFE3"/>
</g>
<path d="M810.383 257.824C788.371 248.871 792.199 214.921 796.864 199.065C818.165 181.121 855.975 137.434 860.349 146.166L860.574 146.616C870.241 165.915 877.843 181.091 873.302 202.429C867.097 231.581 837.897 269.015 810.383 257.824Z" fill="#1F5469"/>
<path d="M745.579 186.778C861.077 234.425 884.297 153.715 881.47 107.404L753.157 26.995C753.157 26.995 638.024 98.8268 590.941 117.579C543.859 136.331 609.155 189.653 609.155 189.653C609.155 189.653 630.081 139.131 745.579 186.778Z" fill="#258884"/>
<path d="M248.84 121.797C237.077 114.936 177.336 106.167 169.739 111.802C153.076 122.584 196.889 168.599 207.426 174.97C220.564 182.913 233.156 179.625 244.184 167.619C255.211 155.612 263.543 130.373 248.84 121.797Z" fill="#F395A9"/>
<path d="M81.2038 279.121C74.0624 274.959 65.2844 277.635 60.6722 281.053C50.5552 287.593 49.6625 307.508 56.06 311.373C64.0363 316.19 71.6819 314.196 78.377 306.914C85.072 299.631 90.1305 284.322 81.2038 279.121Z" fill="#EEF651"/>
<path d="M513.782 248.772C506.974 254.692 505.959 264.816 507.323 270.87C509.414 283.801 527.847 292.007 534.075 286.753C541.839 280.203 543.041 271.508 538.869 261.872C534.698 252.235 522.292 241.372 513.782 248.772Z" fill="#1F5469"/>
<path d="M689.614 395.719C684.573 392.345 678.377 394.515 675.122 397.286C667.98 402.589 667.35 418.737 671.866 421.87C677.496 425.776 682.893 424.159 687.619 418.254C692.345 412.35 695.916 399.937 689.614 395.719Z" fill="#F395A9"/>
<defs>
<filter id="filter0_b_3707_9738" x="-29.958" y="-313" width="1085.96" height="752" filterUnits="userSpaceOnUse" color-interpolation-filters="sRGB">
<feFlood flood-opacity="0" result="BackgroundImageFix"/>
<feGaussianBlur in="BackgroundImageFix" stdDeviation="15"/>
<feComposite in2="SourceAlpha" operator="in" result="effect1_backgroundBlur_3707_9738"/>
<feBlend mode="normal" in="SourceGraphic" in2="effect1_backgroundBlur_3707_9738" result="shape"/>
</filter>
</defs>
</svg>
