<svg width="24" height="24" viewBox="0 0 24 24" fill="none" xmlns="http://www.w3.org/2000/svg">
<path d="M13.7365 2.15192C15.0297 2.37996 16.2654 2.86049 17.373 3.56609C18.4806 4.27168 19.4383 5.18851 20.1915 6.26424C20.9448 7.33996 21.4787 8.55351 21.763 9.8356C22.0472 11.1177 22.0761 12.4432 21.8481 13.7365C21.62 15.0298 21.1395 16.2654 20.4339 17.373C19.7283 18.4806 18.8115 19.4383 17.7358 20.1915C16.66 20.9448 15.4465 21.4787 14.1644 21.763C12.8823 22.0472 11.5568 22.0761 10.2635 21.8481C8.97025 21.62 7.73456 21.1395 6.627 20.4339C5.51945 19.7283 4.56171 18.8115 3.80848 17.7358C3.05525 16.66 2.52127 15.4465 2.23704 14.1644C1.95281 12.8823 1.92388 11.5568 2.15192 10.2635C2.37996 8.97025 2.86049 7.73456 3.56609 6.627C4.27168 5.51944 5.18851 4.56171 6.26424 3.80848C7.33996 3.05525 8.55352 2.52127 9.83561 2.23704C11.1177 1.95281 12.4432 1.92388 13.7365 2.15192L13.7365 2.15192Z" stroke="#1E1E1E" stroke-width="1.6"/>
<path d="M12 12L12 6" stroke="#1E1E1E" stroke-width="1.6" stroke-linecap="square"/>
<path d="M12 17L12 18" stroke="#1E1E1E" stroke-width="1.6" stroke-linecap="square"/>
</svg>
