<svg width="24" height="24" viewBox="0 0 24 24" fill="none" xmlns="http://www.w3.org/2000/svg">
<path d="M14.2255 17.5385V18.2308C14.2255 18.9652 13.9384 19.6696 13.4273 20.1889C12.9163 20.7082 12.2232 21 11.5005 21C10.7778 21 10.0847 20.7082 9.57367 20.1889C9.06264 19.6696 8.77555 18.9652 8.77555 18.2308V17.5385M18.8102 16.1292C17.7168 14.7692 16.9449 14.0769 16.9449 10.3276C16.9449 6.89423 15.2197 5.67101 13.7997 5.07692C13.6111 4.99817 13.4335 4.81731 13.376 4.62043C13.127 3.75894 12.4287 3 11.5005 3C10.5723 3 9.87362 3.75938 9.6271 4.6213C9.56962 4.82034 9.39207 4.99817 9.20345 5.07692C7.78179 5.67188 6.05825 6.89077 6.05825 10.3276C6.05612 14.0769 5.28419 14.7692 4.1908 16.1292C3.73777 16.6925 4.1346 17.5385 4.92696 17.5385H18.0783C18.8664 17.5385 19.2607 16.69 18.8102 16.1292Z" stroke="#1E1E1E" stroke-width="1.6" stroke-linecap="round" stroke-linejoin="round"/>
</svg>
