<svg width="25" height="24" viewBox="0 0 25 24" fill="none" xmlns="http://www.w3.org/2000/svg">
<path d="M18.1798 13.7071L20.8279 16.3552C21.184 16.7113 21.184 17.2887 20.8279 17.6448C18.9027 19.57 15.8548 19.7866 13.6766 18.153L12.1012 16.9714C10.3577 15.6638 8.80888 14.115 7.50123 12.3714L6.31966 10.796C4.68606 8.61788 4.90267 5.56999 6.82789 3.64477C7.18398 3.28867 7.76133 3.28867 8.11742 3.64477L10.7655 6.29289C11.1561 6.68342 11.1561 7.31658 10.7656 7.70711L9.7444 8.72825C9.58212 8.89054 9.54189 9.13846 9.64452 9.34373C10.8312 11.7171 12.7556 13.6415 15.1289 14.8281C15.3342 14.9308 15.5821 14.8905 15.7444 14.7283L16.7655 13.7071C17.1561 13.3166 17.7892 13.3166 18.1798 13.7071Z" stroke="white" stroke-width="2"/>
</svg>
