<svg width="238" height="32" viewBox="0 0 238 32" fill="none" xmlns="http://www.w3.org/2000/svg">
<g clip-path="url(#clip0_4305_7362)">
<path d="M21.6656 17.5984H6.07301C4.75424 17.5984 3.67927 16.5288 3.67927 15.2166C3.67927 13.9044 4.75424 12.8348 6.07301 12.8348H27.118V9.17383H6.07301C2.72621 9.17383 0 11.8864 0 15.2166C0 18.5467 2.72621 21.2593 6.07301 21.2593H21.6656C23.5385 21.2593 25.0567 22.77 25.0567 24.6335C25.0567 26.4971 23.5385 28.0077 21.6656 28.0077H0.365711V31.6687H21.6767C25.5776 31.6687 28.7471 28.515 28.7471 24.6335C28.7471 20.752 25.5665 17.5984 21.6656 17.5984Z" fill="#101210"/>
<path d="M184.784 27.9971C183.675 27.9971 182.767 28.9013 182.767 30.004C182.767 31.1067 183.675 32.0109 184.784 32.0109C185.892 32.0109 186.801 31.1067 186.801 30.004C186.801 28.8902 185.892 27.9971 184.784 27.9971Z" fill="#101210"/>
<path d="M121.915 9.19629H114.057V12.8572H118.235V28.0192H113.669V31.6801H126.469V28.0192H121.915V9.19629Z" fill="#101210"/>
<path d="M118.579 5.00564C118.789 5.04974 119.011 5.06077 119.232 5.06077C119.809 5.06077 120.418 4.92845 120.995 4.68586C121.804 4.333 122.48 3.79268 122.89 3.15312C123.311 2.49151 123.41 1.79681 123.156 1.20136C122.635 0.0104598 120.828 -0.364454 119.122 0.374347C117.415 1.10212 116.44 2.66794 116.961 3.85884C117.227 4.45429 117.803 4.86229 118.579 5.00564Z" fill="#101210"/>
<path d="M88.1805 9.79186C86.7953 9.40592 85.2992 9.22949 83.5925 9.22949H69.2744V31.6912H72.9537V22.9359H83.5925C85.2881 22.9359 86.7953 22.7484 88.1805 22.3735C90.9954 21.6127 94.3422 19.9035 94.3422 16.0882C94.3422 12.2729 90.9843 10.5527 88.1805 9.79186ZM92.4582 16.0551C92.4582 17.7312 90.0313 18.5141 87.9811 18.878C86.9283 19.0655 85.7979 19.1537 84.5124 19.1537H72.9537V12.9676H84.5124C85.7979 12.9676 86.9393 13.0558 87.9811 13.2433C90.0313 13.5961 92.4582 14.368 92.4582 16.0551Z" fill="#101210"/>
<path d="M109.569 9.07434C109.469 9.09639 109.37 9.11845 109.259 9.15153C109.104 9.19563 108.96 9.22871 108.815 9.27282C108.594 9.32796 108.361 9.38309 108.128 9.46028C107.353 9.66979 106.577 9.93443 105.956 10.155C104.416 10.7173 103.086 11.3459 101.889 12.0957C101.778 12.1619 101.679 12.2391 101.568 12.3052C101.357 12.4375 101.147 12.5699 100.947 12.7242L100.049 13.4079L100.027 13.4189C99.9276 13.5071 99.8278 13.6064 99.7281 13.6946V9.20666H96.0488V31.6794H99.7281V19.3073C99.8611 18.392 100.182 17.554 100.648 16.8924L100.659 16.8703C100.903 16.4403 101.246 16.0985 101.601 15.7235C101.667 15.6574 101.723 15.6022 101.789 15.5361C102.21 15.2053 102.698 14.8193 103.252 14.5547C104.316 14.0144 105.967 13.7056 107.131 13.6505C107.718 13.6174 108.328 13.6505 108.915 13.7387C109.203 13.7828 109.491 13.8379 109.78 13.9262C109.979 13.9813 110.334 14.1026 110.445 14.1908L110.799 14.5216V8.84277L110.555 8.87585C110.156 8.93099 109.857 9.00818 109.569 9.07434Z" fill="#101210"/>
<path d="M65.4953 9.05285C65.3956 9.07491 65.2958 9.09696 65.185 9.13004C65.0299 9.17415 64.8858 9.20723 64.7417 9.25134C64.5201 9.30647 64.2874 9.36161 64.0546 9.43879C63.2789 9.6483 62.5031 9.91295 61.8825 10.1335C60.3421 10.6959 59.0123 11.3244 57.8043 12.0742C57.6935 12.1404 57.5937 12.2176 57.4829 12.2837C57.2724 12.4161 57.0618 12.5484 56.8623 12.7027L55.9647 13.3864L55.9425 13.3974C55.8428 13.4857 55.743 13.5849 55.6433 13.6731V9.18518H51.9751V31.658H55.6544V19.2858C55.7874 18.3706 56.1087 17.5325 56.5742 16.8709L56.5853 16.8489C56.8291 16.4188 57.1726 16.077 57.5272 15.7021C57.5937 15.6359 57.6492 15.5808 57.7156 15.5146C58.1368 15.1838 58.6244 14.7979 59.1785 14.5332C60.2424 13.9929 61.8936 13.6841 63.0572 13.629C63.6446 13.5959 64.2541 13.629 64.8415 13.7172C65.1296 13.7613 65.4177 13.8165 65.7059 13.9047C65.9053 13.9598 66.26 14.0811 66.3708 14.1804L66.7254 14.5112V8.82129L66.4816 8.85437C66.0827 8.9095 65.7834 8.98669 65.4953 9.05285Z" fill="#101210"/>
<path d="M211.89 20.1569C213.464 19.4181 215.093 17.9736 215.093 15.1727C215.093 13.4966 213.697 9.16309 207.302 9.16309H191.521V31.6689H207.302C215.935 31.6689 216.035 25.935 216.035 25.6924C216.046 22.3292 213.907 20.8295 211.89 20.1569ZM207.458 18.9439H195.378V11.2031H206.837C209.541 11.2031 211.292 12.824 211.292 15.3492C211.292 17.8302 209.053 18.9439 207.458 18.9439ZM195.378 21.3257H206.516C206.737 21.3257 211.89 21.3698 211.89 25.5821C211.89 29.3754 207.447 29.5738 207.314 29.5849H195.378V21.3257Z" fill="#101210"/>
<path d="M164.925 8.89844C156.347 8.89844 149.365 14.07 149.365 20.4326C149.365 26.7951 156.347 31.9667 164.925 31.9667C171.751 31.9667 177.88 28.5814 179.83 23.7296L179.941 23.4429L178.478 23.3988L178.423 23.5421C178.412 23.5862 176.838 27.611 164.913 27.611C154.164 27.611 153.122 21.855 153.022 20.6421H178.323L178.533 20.62H180.462V20.4105C180.484 14.07 173.502 8.89844 164.925 8.89844ZM176.982 17.1245H153.089C153.676 15.6138 156.203 10.9715 164.925 10.9715C171.275 10.9715 175.885 14.456 176.982 17.1245Z" fill="#101210"/>
<path d="M45.5366 9.14119L41.5692 25.4279C41.0483 27.5781 39.0314 29.3204 37.0809 29.3204C36.283 29.3204 35.5959 29.0116 35.1415 28.4382C34.5985 27.7546 34.4434 26.7511 34.6983 25.6925L38.7321 9.13017H34.5542L31.0633 23.4651C30.4981 25.7808 30.886 28.0192 32.1383 29.5961C33.2354 30.9744 34.8756 31.7353 36.7817 31.7353C40.8932 31.7353 45.1044 28.1405 46.1793 23.7298L49.7367 9.11914H45.5366V9.14119Z" fill="#101210"/>
<path d="M139.07 19.0649L138.903 19.0098C138.903 19.0098 138.892 19.0098 138.892 18.9988H138.881C138.516 18.8665 138.139 18.7341 137.773 18.6018C137.729 18.5798 137.695 18.5687 137.662 18.5577C134.049 17.0691 132.664 15.7458 132.731 13.8161C132.786 12.3055 134.725 11.0374 136.975 11.0374C141.973 11.0374 143.425 14.6542 143.824 16.209L143.901 16.5067H147.592L147.536 16.1318C147.093 12.8017 144.134 8.90918 137.252 8.90918C129.661 8.90918 129.384 14.5549 129.373 15.2055C129.328 18.8664 133.473 20.3771 136.798 21.5901C136.931 21.6342 137.064 21.6893 137.197 21.7334L137.23 21.7445C137.341 21.7886 137.441 21.8327 137.54 21.8658C141.984 23.6411 143.414 24.8761 143.392 26.9492C143.37 28.934 141.885 29.9264 138.859 30.0036C135.656 30.0918 133.484 28.4709 132.199 25.0636L132.121 24.843H128.187L128.287 25.251C129.051 28.5039 132.11 31.9774 138.36 31.9774C138.493 31.9774 138.649 31.9774 138.793 31.9774C144.744 31.823 146.894 28.4378 146.927 25.5818C146.949 21.9209 142.971 20.4543 139.07 19.0649Z" fill="#101210"/>
<path d="M234.044 9.17383L226.752 22.6156L218.895 9.17383H215.614L225.278 25.3392L221.931 31.6356H225.799L237.889 9.37231L238 9.17383H234.044Z" fill="#101210"/>
</g>
<defs>
<clipPath id="clip0_4305_7362">
<rect width="238" height="32" fill="white"/>
</clipPath>
</defs>
</svg>
