<svg width="118" height="98" viewBox="0 0 118 98" fill="none" xmlns="http://www.w3.org/2000/svg">
<path fill-rule="evenodd" clip-rule="evenodd" d="M112.022 0.332065C111.911 0.332065 111.828 0.359732 111.745 0.387398C111.662 0.415064 111.579 0.44273 111.469 0.44273C111.303 0.498077 111.164 0.525753 111.026 0.55343C110.887 0.581107 110.749 0.608783 110.583 0.664129L109.255 0.996194C107.705 1.43897 106.266 1.88175 105.048 2.32452C102.06 3.43145 99.5138 4.6491 97.1892 6.0881L97.1889 6.08825C96.9677 6.19889 96.7464 6.30954 96.5251 6.53083C96.3037 6.64152 96.11 6.77989 95.9163 6.91826C95.7226 7.05663 95.5288 7.195 95.3075 7.30569L93.5364 8.63402L92.9829 9.18748V0.44273H85.8986V44.3878H93.0936V20.2568C93.315 18.4857 93.9791 16.8253 94.8647 15.497C95.3075 14.6114 95.9716 13.9473 96.7465 13.2831L97.0785 12.951C97.8534 12.2868 98.8496 11.512 99.9566 11.0693C102.06 9.96235 105.27 9.40884 107.484 9.29815C108.591 9.18746 109.808 9.29816 110.915 9.51955L112.576 9.85161C112.602 9.86044 112.631 9.86997 112.663 9.88015C112.69 9.8889 112.719 9.89813 112.749 9.90781C113.125 10.028 113.715 10.2165 113.904 10.4051L114.568 11.0693V0L114.125 0.110666C113.329 0.110666 112.802 0.200122 112.221 0.298612C112.155 0.309686 112.089 0.320876 112.022 0.332065ZM61.7666 17.0461H11.7334C9.1875 17.0461 7.08434 14.943 7.08434 12.397C7.08434 9.8511 9.1875 7.74799 11.7334 7.74799H72.393V0.552966H11.7334C5.20256 0.552966 0 5.86619 0 12.2864C0 18.8172 5.31326 24.0198 11.7334 24.0198H61.7666C65.4194 24.0198 68.2974 27.0085 68.2974 30.5507C68.2974 34.2035 65.3087 37.0816 61.7666 37.0816H2.21385V44.2766H61.7666C69.2937 44.2766 75.4925 38.0778 75.4925 30.5507C75.4925 23.0236 69.2937 17.0461 61.7666 17.0461ZM31.7689 53.8006C29.1123 53.0258 26.1236 52.6937 22.9135 52.6937H2.10328V96.528H9.2983V79.4814H23.0242C26.345 79.4814 29.223 79.1493 31.8796 78.3744C37.3036 76.9354 43.8344 73.6146 43.8344 66.0875C43.7237 58.6711 37.1929 55.3503 31.7689 53.8006ZM40.0709 65.9768C40.0709 69.2976 35.3111 70.7366 31.4368 71.5115C29.4444 71.8436 27.2305 72.0649 24.6846 72.0649H9.1876V59.9994H24.6846C27.2305 59.9994 29.4444 60.2208 31.4368 60.5529C35.3111 61.217 40.0709 62.7668 40.0709 65.9768ZM75.3295 52.5215C75.4126 52.4939 75.4956 52.4662 75.6063 52.4662C76.1597 52.3555 76.7132 52.2448 77.5987 52.1341L78.0415 52.0234V63.0927L77.3773 62.4285C77.1888 62.24 76.5988 62.0514 76.2228 61.9313C76.1881 61.9202 76.1553 61.9097 76.1248 61.8998C76.0976 61.8911 76.0722 61.8828 76.049 61.875L74.3886 61.543C73.2817 61.3216 72.0641 61.2109 70.9572 61.3216C68.7433 61.4323 65.5332 61.9858 63.4301 63.0927C62.3231 63.5355 61.3269 64.3103 60.552 64.9744L60.2199 65.3066C59.4451 65.9707 58.781 66.6349 58.3382 67.5204C57.4526 68.8487 56.7885 70.5091 56.5671 72.2802V96.4112H49.3721V52.5769H56.5671V61.3216L57.1206 60.7681L58.8917 59.4398C59.113 59.3291 59.3068 59.1908 59.5005 59.0524C59.6942 58.914 59.8879 58.7757 60.1093 58.665C60.3307 58.4436 60.552 58.3329 60.7734 58.2222C63.098 56.7832 65.6439 55.5656 68.6326 54.4586C69.8502 54.0159 71.2892 53.5731 72.8389 53.1304L74.1672 52.7982C74.3333 52.7429 74.4716 52.7152 74.61 52.6876C74.7484 52.6599 74.8868 52.6322 75.0528 52.5769C75.1635 52.5769 75.2465 52.5492 75.3295 52.5215ZM101.064 71.8374L101.396 71.9482C109.034 74.7155 116.782 77.5935 116.782 84.6778C116.671 90.2125 112.465 96.854 100.842 97.1861H99.9569C87.67 97.1861 81.8033 90.4338 80.2536 84.0136L80.0322 83.2388H87.7807L87.8914 83.6816C90.4373 90.4338 94.7543 93.6439 100.953 93.4225C106.82 93.3118 109.809 91.3194 109.809 87.4452C109.919 83.3495 107.152 80.9143 98.4072 77.4828C98.345 77.4207 98.2479 77.3934 98.1356 77.3618C98.0478 77.3372 97.9508 77.3099 97.8537 77.2614H97.743C97.6324 77.2061 97.494 77.1507 97.3556 77.0954C97.2173 77.04 97.0789 76.9847 96.9682 76.9294C90.4373 74.6048 82.3567 71.6161 82.4674 64.421C82.4674 63.0927 83.0209 52.0235 97.8537 52.0235C111.248 52.0235 117.004 59.6613 117.889 66.1921L118 66.967H110.805L110.694 66.4135C109.919 63.3141 107.041 56.2298 97.3003 56.2298C92.8725 56.2298 89.109 58.665 88.9983 61.6537C88.8876 65.4173 91.5442 68.0739 98.6286 70.9519C98.6839 70.9519 98.7116 70.9796 98.7393 71.0072C98.767 71.0349 98.7946 71.0626 98.85 71.0626C99.3264 71.1987 99.8028 71.3767 100.253 71.545C100.536 71.6505 100.808 71.7522 101.064 71.8374Z" fill="white"/>
</svg>
