<svg width="20" height="20" viewBox="0 0 20 20" fill="none" xmlns="http://www.w3.org/2000/svg">
<path d="M8.55228 1.79343C7.47456 1.98346 6.44482 2.38391 5.52185 2.9719C4.59889 3.55989 3.80077 4.32392 3.17308 5.22036C2.54539 6.1168 2.10041 7.12809 1.86355 8.1965C1.62669 9.26491 1.60259 10.3695 1.79262 11.4472C1.98265 12.525 2.38309 13.5547 2.97109 14.4777C3.55908 15.4006 4.32311 16.1987 5.21955 16.8264C6.11598 17.4541 7.12728 17.8991 8.19569 18.136C9.2641 18.3728 10.3687 18.3969 11.4464 18.2069C12.5241 18.0169 13.5539 17.6164 14.4768 17.0284C15.3998 16.4404 16.1979 15.6764 16.8256 14.78C17.4533 13.8835 17.8983 12.8722 18.1352 11.8038C18.372 10.7354 18.3961 9.63082 18.2061 8.55309C18.016 7.47537 17.6156 6.44563 17.0276 5.52266C16.4396 4.5997 15.6756 3.80159 14.7792 3.17389C13.8827 2.5462 12.8714 2.10122 11.803 1.86436C10.7346 1.6275 9.63 1.6034 8.55228 1.79343L8.55228 1.79343Z" stroke="#FF2828"/>
<path d="M10 10L10 5" stroke="#FF2828" stroke-linecap="square"/>
<path d="M10 14.1665L10 14.9998" stroke="#FF2828" stroke-linecap="square"/>
</svg>
