<svg width="49" height="24" viewBox="0 0 49 24" fill="none" xmlns="http://www.w3.org/2000/svg">
<path d="M34.6003 19H15.3996C14.6292 19 14 18.3673 14 17.5926V6.40738C14 5.63267 14.6292 5 15.3996 5H34.6003C35.3708 5 36 5.63267 36 6.40738V17.5926C36 18.3673 35.3708 19 34.6003 19Z" fill="#BAD6EB"/>
<path d="M14 7H36V10H14V7Z" fill="#424242"/>
<path d="M34.6555 14H15.3445C15.1559 14 15 13.8666 15 13.7014V12.2986C15 12.1351 15.154 12 15.3445 12H34.6555C34.8441 12 35 12.1334 35 12.2986V13.7014C34.9981 13.8649 34.8441 14 34.6555 14Z" fill="white"/>
</svg>
