<svg width="25" height="25" viewBox="0 0 25 25" fill="none" xmlns="http://www.w3.org/2000/svg">
<path d="M3.5 10.0127C3.5 9.06989 3.5 8.59848 3.79289 8.30559C4.08579 8.0127 4.55719 8.0127 5.5 8.0127H19.5C20.4428 8.0127 20.9142 8.0127 21.2071 8.30559C21.5 8.59848 21.5 9.06989 21.5 10.0127V11.5127C21.5 11.9786 21.5 12.2116 21.4239 12.3954C21.3224 12.6404 21.1277 12.8351 20.8827 12.9366C20.6989 13.0127 20.4659 13.0127 20 13.0127V13.0127C19.5341 13.0127 19.3011 13.0127 19.1173 13.0888C18.8723 13.1903 18.6776 13.385 18.5761 13.63C18.5 13.8138 18.5 14.0468 18.5 14.5127V18.0127C18.5 18.9555 18.5 19.4269 18.2071 19.7198C17.9142 20.0127 17.4428 20.0127 16.5 20.0127H8.5C7.55719 20.0127 7.08579 20.0127 6.79289 19.7198C6.5 19.4269 6.5 18.9555 6.5 18.0127V14.5127C6.5 14.0468 6.5 13.8138 6.42388 13.63C6.32239 13.385 6.12771 13.1903 5.88268 13.0888C5.69891 13.0127 5.46594 13.0127 5 13.0127V13.0127C4.53406 13.0127 4.30109 13.0127 4.11732 12.9366C3.87229 12.8351 3.67761 12.6404 3.57612 12.3954C3.5 12.2116 3.5 11.9786 3.5 11.5127V10.0127Z" stroke="#1E1E1E" stroke-width="1.6"/>
<path d="M5.5 13.0127H19.5" stroke="#1E1E1E" stroke-width="1.6" stroke-linecap="round"/>
<path d="M12.5 7.0127L12.5 20.0127" stroke="#1E1E1E" stroke-width="1.6" stroke-linecap="round"/>
<path d="M12.5 7.0127L11.6214 6.13414C10.5551 5.06783 9.25521 4.26443 7.8246 3.78756V3.78756C6.68099 3.40636 5.5 4.25757 5.5 5.46304V5.64515C5.5 6.46183 6.02259 7.18689 6.79737 7.44515L8.5 8.0127" stroke="#1E1E1E" stroke-width="1.6" stroke-linecap="round"/>
<path d="M12.5 7.0127L13.3786 6.13414C14.4449 5.06783 15.7448 4.26443 17.1754 3.78756V3.78756C18.319 3.40636 19.5 4.25757 19.5 5.46304V5.64515C19.5 6.46183 18.9774 7.18689 18.2026 7.44515L16.5 8.0127" stroke="#1E1E1E" stroke-width="1.6" stroke-linecap="round"/>
</svg>
