<svg width="24" height="24" viewBox="0 0 24 24" fill="none" xmlns="http://www.w3.org/2000/svg">
<path d="M12 4L5 7L12 10L19 7L12 4Z" stroke="#1E1E1E" stroke-width="1.6" stroke-linejoin="round"/>
<path fill-rule="evenodd" clip-rule="evenodd" d="M7.27931 10.1527L4.68486 11.2646C4.39072 11.3907 4.2 11.6799 4.2 11.9999C4.2 12.32 4.39072 12.6092 4.68486 12.7353L11.6849 15.7353C11.8861 15.8215 12.1139 15.8215 12.3151 15.7353L19.3151 12.7353C19.6093 12.6092 19.8 12.32 19.8 11.9999C19.8 11.6799 19.6093 11.3907 19.3151 11.2646L16.7207 10.1527L14.6898 11.0231L16.9691 11.9999L12 14.1296L7.03087 11.9999L9.31018 11.0231L7.27931 10.1527Z" fill="#1E1E1E"/>
<path fill-rule="evenodd" clip-rule="evenodd" d="M7.27931 15.1527L4.68486 16.2646C4.39072 16.3907 4.2 16.6799 4.2 16.9999C4.2 17.32 4.39072 17.6092 4.68486 17.7353L11.6849 20.7353C11.8861 20.8215 12.1139 20.8215 12.3151 20.7353L19.3151 17.7353C19.6093 17.6092 19.8 17.32 19.8 16.9999C19.8 16.6799 19.6093 16.3907 19.3151 16.2646L16.7207 15.1527L14.6898 16.0231L16.9691 16.9999L12 19.1296L7.03087 16.9999L9.31018 16.0231L7.27931 15.1527Z" fill="#1E1E1E"/>
</svg>
