<svg width="24" height="25" viewBox="0 0 24 25" fill="none" xmlns="http://www.w3.org/2000/svg">
<path d="M12.398 20.3753L12.7664 21.0854H12.7664L12.398 20.3753ZM11.602 20.3753L11.2336 21.0854H11.2336L11.602 20.3753ZM18.2 11.5713C18.2 13.7895 17.0704 15.6074 15.687 17.0027C14.3044 18.3973 12.7353 19.2991 12.0297 19.6651L12.7664 21.0854C13.5437 20.6822 15.2756 19.6902 16.8232 18.1292C18.3701 16.5689 19.8 14.3694 19.8 11.5713H18.2ZM12 5.37129C15.4242 5.37129 18.2 8.14712 18.2 11.5713H19.8C19.8 7.26347 16.3078 3.77129 12 3.77129V5.37129ZM5.8 11.5713C5.8 8.14712 8.57583 5.37129 12 5.37129V3.77129C7.69218 3.77129 4.2 7.26347 4.2 11.5713H5.8ZM11.9703 19.6651C11.2647 19.2991 9.69562 18.3973 8.313 17.0027C6.92964 15.6074 5.8 13.7895 5.8 11.5713H4.2C4.2 14.3694 5.62988 16.5689 7.17676 18.1292C8.72439 19.6902 10.4563 20.6822 11.2336 21.0854L11.9703 19.6651ZM12.0297 19.6651C12.0154 19.6725 12.0058 19.6736 12 19.6736C11.9942 19.6736 11.9846 19.6725 11.9703 19.6651L11.2336 21.0854C11.7174 21.3364 12.2826 21.3364 12.7664 21.0854L12.0297 19.6651ZM14.2 11.5713C14.2 12.7863 13.215 13.7713 12 13.7713V15.3713C14.0987 15.3713 15.8 13.67 15.8 11.5713H14.2ZM12 9.37129C13.215 9.37129 14.2 10.3563 14.2 11.5713H15.8C15.8 9.47261 14.0987 7.77129 12 7.77129V9.37129ZM9.8 11.5713C9.8 10.3563 10.785 9.37129 12 9.37129V7.77129C9.90132 7.77129 8.2 9.47261 8.2 11.5713H9.8ZM12 13.7713C10.785 13.7713 9.8 12.7863 9.8 11.5713H8.2C8.2 13.67 9.90132 15.3713 12 15.3713V13.7713Z" fill="#1E1E1E"/>
</svg>
