<svg width="21" height="21" viewBox="0 0 21 21" fill="none" xmlns="http://www.w3.org/2000/svg">
<g clip-path="url(#clip0_4305_7379)">
<path d="M14.8668 0.385742H11.414V14.0089C11.414 15.6321 10.086 16.9655 8.4334 16.9655C6.78077 16.9655 5.45278 15.6321 5.45278 14.0089C5.45278 12.4147 6.75127 11.1104 8.34488 11.0524V7.63213C4.83305 7.69008 2 10.5017 2 14.0089C2 17.5452 4.89207 20.3857 8.46292 20.3857C12.0337 20.3857 14.9258 17.5162 14.9258 14.0089V7.02341C16.2243 7.95096 17.8179 8.50169 19.5 8.53069V5.11038C16.9031 5.02343 14.8668 2.93646 14.8668 0.385742Z" fill="#535353"/>
</g>
<defs>
<clipPath id="clip0_4305_7379">
<rect width="20" height="20" fill="white" transform="translate(0.5 0.385742)"/>
</clipPath>
</defs>
</svg>
