<svg width="24" height="24" viewBox="0 0 24 24" fill="none" xmlns="http://www.w3.org/2000/svg">
<path d="M8 20C8.53043 20 9.03914 19.7893 9.41421 19.4142C9.78929 19.0391 10 18.5304 10 18C10 17.4696 9.78929 16.9609 9.41421 16.5858C9.03914 16.2107 8.53043 16 8 16C7.46957 16 6.96086 16.2107 6.58579 16.5858C6.21071 16.9609 6 17.4696 6 18C6 18.5304 6.21071 19.0391 6.58579 19.4142C6.96086 19.7893 7.46957 20 8 20V20ZM18 20C18.5304 20 19.0391 19.7893 19.4142 19.4142C19.7893 19.0391 20 18.5304 20 18C20 17.4696 19.7893 16.9609 19.4142 16.5858C19.0391 16.2107 18.5304 16 18 16C17.4696 16 16.9609 16.2107 16.5858 16.5858C16.2107 16.9609 16 17.4696 16 18C16 18.5304 16.2107 19.0391 16.5858 19.4142C16.9609 19.7893 17.4696 20 18 20V20Z" stroke="#1E1E1E" stroke-width="1.6" stroke-miterlimit="1.5" stroke-linecap="round" stroke-linejoin="round"/>
<path d="M10.05 18H15V5.6C15 5.44087 14.9368 5.28826 14.8243 5.17574C14.7117 5.06321 14.5591 5 14.4 5H1M5.65 18H3.6C3.52121 18 3.44319 17.9845 3.37039 17.9543C3.29759 17.9242 3.23145 17.88 3.17574 17.8243C3.12002 17.7685 3.07583 17.7024 3.04567 17.6296C3.01552 17.5568 3 17.4788 3 17.4V12.5" stroke="#1E1E1E" stroke-width="1.6" stroke-linecap="round"/>
<path d="M2 9H6" stroke="#1E1E1E" stroke-width="1.6" stroke-linecap="round" stroke-linejoin="round"/>
<path d="M15 9H20.61C20.726 9.00003 20.8395 9.03367 20.9367 9.09685C21.034 9.16003 21.1108 9.25005 21.158 9.356L22.948 14.384C22.9821 14.4605 22.9998 14.5433 23 14.627V17.4C23 17.4788 22.9845 17.5568 22.9543 17.6296C22.9242 17.7024 22.88 17.7685 22.8243 17.8243C22.7685 17.88 22.7024 17.9242 22.6296 17.9543C22.5568 17.9845 22.4788 18 22.4 18H20.5M15 18H16" stroke="#1E1E1E" stroke-width="1.6" stroke-linecap="round"/>
</svg>
