<?xml version="1.0" standalone="no"?>
<!DOCTYPE svg PUBLIC "-//W3C//DTD SVG 20010904//EN"
 "http://www.w3.org/TR/2001/REC-SVG-20010904/DTD/svg10.dtd">
<svg version="1.0" xmlns="http://www.w3.org/2000/svg"
 width="1056.000000pt" height="1056.000000pt" viewBox="0 0 1056.000000 1056.000000"
 preserveAspectRatio="xMidYMid meet">
<metadata>
Created by potrace 1.14, written by Peter Selinger 2001-2017
</metadata>
<g transform="translate(0.000000,1056.000000) scale(0.100000,-0.100000)"
fill="#000000" stroke="none">
<path d="M10019 9596 c-2 -2 -35 -6 -74 -10 -117 -9 -241 -36 -435 -93 -47
-13 -89 -26 -95 -27 -5 -1 -48 -15 -95 -31 -47 -16 -87 -30 -90 -30 -6 -2 -14
-5 -165 -65 -237 -94 -494 -230 -685 -363 -84 -58 -191 -139 -214 -163 -15
-14 -16 -9 -16 53 0 37 -1 210 -1 383 l0 315 -127 -1 c-70 -1 -131 -3 -137 -4
-5 -1 -14 -1 -20 0 -14 3 -208 3 -220 0 -5 -1 -12 -1 -15 0 -15 6 -82 5 -92
-1 -8 -5 -11 -478 -11 -1916 1 -1049 2 -1914 2 -1920 1 -10 71 -13 315 -13
l315 0 -2 75 c-2 41 1 75 6 75 4 0 5 6 0 12 -10 17 -11 189 0 211 4 9 4 17 0
17 -10 0 -9 392 0 407 4 7 3 14 -2 18 -7 4 -7 15 -1 30 5 14 6 25 2 25 -9 0
-8 392 1 407 4 7 3 14 -2 18 -7 4 -7 15 -1 30 5 14 6 25 2 25 -4 0 -7 90 -7
200 0 110 4 200 9 200 5 0 4 6 -1 13 -9 13 -9 316 0 382 14 94 56 225 87 275
6 8 14 24 19 36 29 65 103 168 166 229 84 81 133 125 140 125 3 0 15 8 26 18
10 11 32 25 47 33 15 8 29 16 32 19 5 6 118 62 135 66 6 2 47 17 93 34 46 16
96 32 113 35 16 3 57 12 91 20 126 29 275 43 408 39 106 -3 131 -6 200 -19 14
-2 41 -7 60 -10 105 -18 188 -52 225 -91 12 -13 25 -24 29 -24 3 0 5 23 3 50
-1 28 0 50 4 50 4 0 3 16 -1 34 -4 19 -5 37 -3 40 3 3 4 31 4 63 -1 32 -2 82
-1 111 1 48 0 72 -1 135 0 31 0 123 1 185 1 52 0 96 -1 130 0 9 0 45 2 80 2
54 -8 91 -22 78z"/>
<path d="M1107 9554 c-1 -1 -54 -4 -117 -7 -63 -3 -127 -8 -142 -11 -16 -3
-38 -8 -50 -10 -13 -3 -48 -13 -78 -22 -30 -10 -57 -18 -60 -19 -3 0 -20 -9
-37 -18 -18 -10 -35 -17 -38 -17 -25 2 -187 -110 -263 -181 -94 -89 -199 -239
-240 -344 -6 -16 -17 -43 -23 -60 -7 -16 -13 -32 -14 -35 -2 -9 -15 -65 -20
-87 -3 -13 -8 -33 -11 -45 -11 -40 -13 -271 -3 -323 5 -27 12 -61 14 -75 3
-14 7 -34 9 -45 5 -24 31 -94 57 -152 10 -24 19 -47 19 -53 0 -5 5 -10 10 -10
6 0 10 -4 10 -9 0 -15 62 -111 71 -111 5 0 9 -6 9 -14 0 -19 196 -216 215
-216 9 0 70 -44 73 -52 2 -5 12 -8 23 -8 10 0 19 -4 19 -9 0 -5 8 -11 18 -14
9 -3 51 -19 92 -37 68 -28 133 -48 185 -55 11 -2 20 -4 20 -5 0 -9 370 -11
2350 -14 1254 -2 2295 -6 2314 -10 19 -4 38 -9 43 -12 5 -3 20 -8 35 -10 27
-5 96 -41 148 -77 45 -31 124 -110 125 -124 0 -7 4 -13 9 -13 9 0 70 -117 76
-146 2 -10 4 -19 5 -19 2 0 6 -19 18 -75 11 -56 7 -166 -7 -202 -6 -16 -8 -28
-6 -28 7 0 -23 -77 -47 -125 -42 -80 -171 -215 -206 -215 -6 0 -12 -4 -14 -8
-8 -21 -109 -56 -216 -77 -9 -2 -1203 -4 -2652 -4 l-2636 -1 0 -314 0 -315
119 -3 c65 -2 121 0 124 5 2 4 9 5 14 1 6 -3 34 -5 62 -4 65 2 57 1 152 0 44
-1 85 -1 90 0 6 2 15 1 20 0 6 -1 33 -1 60 0 63 1 56 1 150 0 44 -1 85 -1 90
0 6 2 15 1 20 0 6 -1 33 -1 60 0 63 1 56 1 150 0 44 -1 85 -1 90 0 6 2 15 1
20 0 6 -1 33 -1 60 0 63 1 56 1 150 0 44 -1 85 -1 90 0 6 2 15 1 20 0 6 -1 33
-1 60 0 63 1 56 1 150 0 44 -1 85 -1 90 0 6 2 15 1 20 0 6 -1 33 -1 60 0 63 1
56 1 150 0 44 -1 85 -1 90 0 6 2 15 1 20 0 6 -1 33 -1 60 0 63 1 56 1 150 0
44 -1 85 -1 90 0 6 2 15 1 20 0 6 -1 33 -1 60 0 63 1 56 1 150 0 44 -1 85 -1
90 0 6 2 15 1 20 0 6 -1 33 -1 60 0 63 1 56 1 150 0 44 -1 85 -1 90 0 6 2 15
1 20 0 6 -1 33 -1 60 0 63 1 56 1 150 0 44 -1 85 -1 90 0 6 2 15 1 20 0 6 -1
33 -1 60 0 63 1 56 1 150 0 44 -1 85 -1 90 0 6 2 15 1 20 0 6 -1 33 -1 60 0
63 1 56 1 150 0 44 -1 85 -1 90 0 6 2 15 1 20 0 6 -1 33 -1 60 0 63 1 56 1
150 0 44 -1 85 -1 90 0 6 2 15 1 20 0 6 -1 33 -1 60 0 63 1 56 1 150 0 44 -1
85 -1 90 0 6 2 15 1 20 0 6 -1 33 -1 60 0 28 0 55 1 60 1 6 0 57 0 115 0 58 0
119 -1 135 -2 83 -4 296 11 340 24 11 4 34 9 52 12 69 11 209 69 332 136 84
46 236 178 313 272 10 12 22 27 28 34 50 60 170 283 170 318 0 8 5 15 12 15 6
0 9 3 5 6 -3 3 -2 17 3 30 6 14 12 35 15 47 2 12 9 42 15 67 42 171 24 468
-37 620 -3 8 -7 20 -8 25 -2 6 -11 31 -22 55 -11 25 -23 52 -27 60 -3 8 -17
33 -31 55 -14 22 -29 49 -34 60 -5 11 -18 29 -29 40 -10 12 -21 26 -23 32 -15
43 -248 263 -278 263 -6 0 -11 3 -11 8 0 4 -17 16 -37 27 -21 11 -40 22 -43
25 -5 6 -102 52 -145 70 -55 22 -160 52 -235 67 -14 3 -36 7 -50 10 -14 3
-1058 6 -2320 7 -2113 3 -2299 4 -2343 19 -136 48 -228 134 -273 257 -29 81
-25 218 9 290 14 30 67 111 82 125 45 44 133 98 180 110 67 17 175 24 192 12
7 -5 18 -5 25 -1 16 10 78 12 84 2 3 -4 15 -4 27 0 28 9 89 8 105 -2 6 -4 17
-4 24 0 16 10 78 12 84 2 3 -4 15 -4 27 0 27 9 88 8 104 -1 6 -4 14 -4 17 1 6
9 47 8 64 -2 7 -4 17 -4 24 0 16 10 78 12 84 2 3 -4 15 -4 27 0 28 9 89 8 105
-2 6 -4 12 -4 12 1 0 7 54 9 70 3 3 -1 10 -1 15 0 22 5 132 3 140 -2 6 -3 19
-2 30 2 11 4 32 4 47 -1 15 -4 30 -4 32 0 5 8 73 7 82 -1 3 -4 16 -4 28 0 27
9 88 8 104 -2 6 -4 17 -4 24 0 16 10 78 12 84 2 3 -4 15 -4 27 0 28 9 89 8
105 -2 6 -4 17 -4 24 0 16 10 78 12 84 2 3 -4 15 -4 27 0 19 7 92 8 107 2 3
-1 10 -1 15 0 13 3 127 3 140 0 6 -1 15 -1 20 0 27 5 132 3 143 -4 6 -4 17 -4
24 0 16 10 78 12 84 2 3 -4 15 -4 27 0 27 9 88 8 104 -1 6 -4 14 -4 17 1 6 9
47 8 64 -2 7 -4 17 -4 24 0 16 10 78 12 84 2 3 -4 15 -4 27 0 28 9 89 8 105
-2 6 -4 17 -4 24 0 16 10 78 12 84 2 3 -4 15 -4 27 0 28 9 89 8 105 -2 6 -4
17 -4 24 0 16 10 78 12 84 2 3 -4 15 -4 27 0 28 9 89 8 105 -2 6 -4 17 -4 24
0 16 10 78 12 84 2 3 -4 16 -3 29 2 15 6 27 6 30 -1 4 -5 12 -6 18 -2 15 9 77
10 83 1 3 -4 15 -4 27 0 28 9 89 8 105 -2 6 -4 17 -4 24 0 16 10 78 12 84 2 3
-4 15 -4 27 0 28 9 89 8 105 -2 6 -4 17 -4 24 0 16 10 78 12 84 2 3 -4 15 -4
27 0 19 7 92 8 107 2 3 -1 10 -1 15 0 22 5 132 3 140 -2 6 -3 19 -2 30 2 11 4
32 4 47 -1 15 -4 30 -4 32 0 5 8 73 7 82 -1 3 -4 16 -4 28 0 27 9 88 8 104 -2
6 -4 17 -4 24 0 16 10 78 12 84 2 3 -4 15 -4 27 0 28 9 89 8 105 -2 6 -4 17
-4 24 0 16 10 78 12 84 2 3 -4 15 -4 27 0 25 9 94 8 103 -1 3 -3 12 -3 20 0
22 8 124 9 124 0 0 -4 10 -2 23 4 12 7 24 13 27 13 2 1 4 138 5 305 0 223 -3
305 -12 308 -10 4 -5221 10 -5226 7z"/>
<path d="M8496 5042 c-2 -1 -36 -5 -76 -7 -86 -5 -157 -13 -225 -27 -27 -5
-63 -12 -80 -15 -16 -3 -38 -9 -47 -14 -10 -5 -18 -7 -18 -5 0 16 -322 -121
-340 -144 -3 -4 -28 -22 -56 -41 -157 -108 -301 -308 -370 -514 -30 -93 -32
-99 -49 -220 -7 -45 -6 -225 1 -236 3 -5 7 -19 10 -32 2 -12 6 -32 9 -44 3
-13 7 -33 10 -45 2 -12 9 -26 15 -32 5 -5 10 -18 10 -27 0 -10 3 -19 8 -21 4
-1 16 -21 27 -43 11 -22 22 -42 25 -45 3 -3 18 -23 35 -45 89 -119 279 -266
463 -357 48 -24 89 -46 90 -50 2 -5 9 -8 16 -8 7 0 34 -11 62 -24 51 -24 239
-100 334 -134 30 -11 92 -34 137 -52 44 -17 87 -33 95 -34 7 -1 30 -10 52 -19
21 -9 40 -17 42 -17 2 0 23 -8 47 -19 23 -10 71 -31 107 -46 76 -32 307 -145
365 -177 146 -83 317 -230 345 -297 7 -17 16 -31 21 -31 5 0 9 -6 9 -13 0 -8
7 -28 15 -44 39 -77 49 -278 19 -377 -19 -63 -77 -154 -124 -194 -25 -21 -121
-84 -134 -87 -6 -1 -27 -9 -47 -18 -20 -9 -47 -18 -60 -21 -13 -3 -44 -10 -69
-16 -98 -24 -198 -34 -350 -34 -126 0 -233 8 -272 20 -9 3 -26 7 -38 9 -21 4
-77 21 -115 35 -108 40 -256 135 -344 222 -52 51 -113 126 -189 234 -29 42
-131 245 -136 274 -1 3 -4 10 -7 15 -4 6 -11 26 -18 45 l-11 36 -338 -1 c-218
0 -336 -4 -334 -10 1 -6 7 -28 13 -50 31 -125 98 -294 141 -358 11 -15 17 -27
14 -27 -7 0 98 -153 134 -195 72 -84 209 -211 263 -243 15 -9 27 -20 27 -24 0
-4 4 -8 9 -8 6 0 29 -13 53 -29 79 -52 283 -151 313 -151 9 0 23 -4 33 -9 25
-14 54 -23 81 -28 14 -2 32 -8 42 -14 10 -5 28 -9 42 -9 13 0 27 -3 31 -7 4
-4 13 -8 19 -8 7 0 46 -6 87 -14 41 -7 86 -14 100 -17 99 -17 434 -23 575 -11
39 3 70 7 70 8 0 1 14 3 30 4 92 8 265 48 355 82 8 3 20 7 25 9 58 19 85 30
85 36 0 5 7 8 15 8 22 0 185 90 185 103 0 4 6 7 13 7 31 0 267 229 267 259 0
5 3 11 8 13 12 5 57 79 89 148 33 69 67 174 77 231 3 19 8 45 11 59 13 60 6
227 -14 303 -21 80 -87 227 -103 227 -4 0 -8 6 -8 13 0 6 -13 26 -28 42 -15
17 -37 43 -50 59 -12 16 -22 26 -22 24 0 -3 -20 13 -44 36 -53 50 -76 68 -146
114 -30 21 -57 39 -60 42 -3 3 -39 23 -80 44 -41 22 -89 47 -106 57 -17 9 -64
31 -105 49 -41 18 -92 40 -114 50 -22 10 -71 29 -110 44 -38 15 -87 33 -107
41 -21 8 -57 22 -80 31 -24 9 -52 20 -63 25 -11 4 -40 15 -65 23 -113 37 -231
80 -300 109 -41 17 -77 32 -80 32 -3 1 -20 9 -37 18 -18 10 -33 14 -33 10 0
-5 -4 -3 -8 2 -4 6 -55 34 -114 64 -59 29 -138 73 -174 97 -37 24 -69 44 -71
44 -2 0 -18 12 -35 28 -84 71 -128 116 -154 155 -16 23 -32 43 -36 45 -25 12
-84 229 -80 297 2 51 17 106 39 151 27 56 111 154 131 154 7 0 12 4 12 9 0 9
44 38 120 78 51 26 186 70 243 78 20 3 54 8 75 11 41 6 184 6 247 -1 82 -8
131 -14 160 -20 60 -12 150 -38 160 -46 5 -5 16 -9 25 -9 18 0 159 -71 215
-108 98 -65 187 -150 258 -246 20 -28 44 -60 52 -70 8 -11 29 -49 47 -85 18
-36 35 -68 38 -71 12 -12 78 -207 83 -248 l4 -27 314 0 c355 0 319 -10 306 85
-18 132 -85 333 -138 410 -9 14 -17 29 -17 33 -3 28 -131 195 -216 281 -125
126 -199 183 -356 269 -56 31 -224 104 -255 111 -5 1 -41 12 -80 24 -84 25
-151 41 -245 57 -81 15 -190 26 -285 31 -139 7 -152 7 -162 1 -6 -4 -13 -4
-17 0 -6 7 -55 11 -60 5z"/>
<path d="M6819 5036 c-2 -3 -26 -7 -54 -10 -70 -8 -93 -12 -150 -26 -27 -6
-61 -14 -75 -16 -14 -3 -39 -9 -57 -15 -17 -5 -42 -12 -56 -14 -13 -3 -71 -19
-128 -36 -57 -17 -111 -32 -119 -34 -44 -10 -288 -102 -382 -145 -26 -11 -50
-21 -53 -20 -5 0 -53 -24 -180 -88 -70 -35 -279 -154 -285 -162 -3 -4 -16 -13
-29 -20 -14 -7 -30 -17 -35 -21 -6 -5 -58 -43 -116 -85 -58 -43 -112 -86 -121
-96 -16 -17 -17 -17 -20 -1 -3 10 -4 181 -3 381 0 322 -1 362 -15 363 -89 3
-600 1 -607 -4 -5 -3 -9 -819 -8 -1919 l0 -1913 315 0 314 0 1 1055 c1 1004 4
1132 25 1172 5 9 8 21 7 25 -4 16 80 215 105 248 4 6 25 37 46 70 54 82 199
218 306 286 37 24 188 98 210 103 6 2 22 8 37 14 34 14 133 41 208 56 57 12
70 14 195 32 60 9 334 9 380 0 62 -13 70 -14 70 -16 0 -1 13 -3 30 -5 102 -13
191 -49 230 -91 12 -13 25 -24 28 -24 8 0 7 949 -2 954 -5 3 -10 4 -12 2z"/>
<path d="M205 4982 c-20 -3 -20 -8 -20 -1920 l0 -1917 315 0 315 0 0 743 c0
408 2 743 5 743 3 1 313 2 690 4 377 1 723 5 770 9 80 7 105 10 198 20 34 4
209 39 255 51 9 3 25 7 35 10 14 3 102 28 137 39 11 3 21 7 120 43 155 57 293
131 434 233 68 50 202 192 224 238 5 12 14 22 19 22 4 0 8 5 8 11 0 6 9 23 19
37 10 15 19 30 20 35 0 4 8 24 17 45 26 60 43 112 38 112 -2 0 0 9 5 19 12 22
24 105 25 173 1 27 4 48 7 48 3 0 4 12 3 28 -10 110 -16 166 -24 192 -5 16 -7
30 -4 30 3 0 0 8 -5 18 -6 11 -12 31 -15 45 -2 14 -16 49 -30 77 -14 27 -23
50 -20 50 3 0 -4 13 -15 29 -12 16 -21 34 -21 39 0 6 -3 12 -8 14 -4 2 -20 23
-37 48 -26 38 -150 170 -195 205 -27 22 -156 112 -165 116 -6 2 -39 20 -75 39
-131 69 -303 136 -470 181 -92 25 -109 29 -235 53 -72 13 -180 25 -310 32
-103 5 -1974 11 -2010 6z m2145 -646 c138 -7 186 -11 245 -20 22 -3 56 -8 75
-10 71 -10 130 -19 180 -31 14 -3 34 -7 46 -9 33 -6 175 -47 203 -58 14 -6 35
-14 46 -17 11 -4 60 -27 109 -52 96 -47 201 -137 225 -194 7 -16 17 -37 20
-45 4 -8 9 -42 10 -76 4 -104 -48 -193 -166 -283 -24 -18 -43 -29 -43 -25 0 4
-8 0 -18 -9 -20 -18 -157 -77 -178 -77 -8 0 -14 -4 -14 -10 0 -5 -9 -10 -20
-10 -11 0 -46 -9 -78 -19 -31 -11 -70 -22 -87 -25 -16 -3 -75 -15 -130 -26
-54 -12 -117 -23 -140 -25 -22 -2 -40 -4 -40 -5 0 -1 -18 -3 -40 -5 -22 -1
-78 -6 -125 -10 -96 -9 -1607 -13 -1618 -5 -4 3 -7 239 -7 525 l0 520 24 5
c36 7 1374 4 1521 -4z"/>
</g>
</svg>
