<svg width="33" height="27" viewBox="0 0 33 27" fill="none" xmlns="http://www.w3.org/2000/svg">
<path fill-rule="evenodd" clip-rule="evenodd" d="M30.6771 0.0909362C30.6468 0.0909362 30.624 0.0985127 30.6013 0.106089C30.5786 0.113666 30.5558 0.121242 30.5255 0.121242C30.48 0.136399 30.4421 0.143978 30.4042 0.151557C30.3664 0.159137 30.3285 0.166716 30.283 0.181872L29.9192 0.272809C29.4949 0.394062 29.1008 0.515319 28.7673 0.636572C27.9489 0.939705 27.2517 1.27316 26.6151 1.66723L26.615 1.66727C26.5544 1.69757 26.4938 1.72787 26.4332 1.78847C26.3726 1.81879 26.3195 1.85668 26.2665 1.89457C26.2134 1.93247 26.1604 1.97036 26.0998 2.00067L25.6147 2.36443L25.4632 2.516V0.121242H23.5231V12.1556H25.4935V5.54733C25.5541 5.06232 25.736 4.60762 25.9785 4.24386C26.0998 4.00136 26.2816 3.81948 26.4938 3.6376L26.5848 3.54664C26.797 3.36476 27.0698 3.15258 27.3729 3.03133C27.9489 2.7282 28.828 2.57662 29.4342 2.54631C29.7374 2.51599 30.0708 2.54631 30.3739 2.60694L30.8286 2.69787C30.8421 2.70237 30.8583 2.70753 30.8762 2.71326C30.9792 2.74617 31.1408 2.7978 31.1924 2.84944L31.3743 3.03133V0L31.253 0.0303059C31.035 0.0303059 30.8905 0.0548037 30.7314 0.0817752L30.6771 0.0909362ZM16.9148 4.66787H3.21321C2.51601 4.66787 1.94005 4.09192 1.94005 3.39471C1.94005 2.6975 2.51601 2.12157 3.21321 2.12157H19.8249V0.151201H3.21321C1.42473 0.151201 0 1.60623 0 3.3644C0 5.15289 1.45504 6.57761 3.21321 6.57761H16.9148C17.9152 6.57761 18.7033 7.39607 18.7033 8.3661C18.7033 9.36644 17.8849 10.1546 16.9148 10.1546H0.606266V12.125H16.9148C18.9761 12.125 20.6737 10.4274 20.6737 8.3661C20.6737 6.30479 18.9761 4.66787 16.9148 4.66787ZM8.70022 14.7331C7.9727 14.5209 7.15424 14.43 6.27515 14.43H0.576252V26.434H2.54662V21.7658H6.30547C7.21487 21.7658 8.00301 21.6749 8.73053 21.4627C10.2159 21.0686 12.0044 20.1592 12.0044 18.0979C11.9741 16.0669 10.1856 15.1575 8.70022 14.7331ZM10.9737 18.0676C10.9737 18.977 9.67024 19.371 8.60927 19.5832C8.06363 19.6742 7.45737 19.7348 6.76017 19.7348H2.5163V16.4306H6.76017C7.45737 16.4306 8.06363 16.4913 8.60927 16.5822C9.67024 16.7641 10.9737 17.1885 10.9737 18.0676ZM20.6286 14.3831C20.6514 14.3755 20.6741 14.3679 20.7044 14.3679C20.856 14.3376 21.0076 14.3073 21.2501 14.277L21.3713 14.2467V17.278L21.1894 17.0961C21.1378 17.0445 20.9763 16.9928 20.8733 16.9599L20.8733 16.9599L20.8405 16.9494L20.8257 16.9445L20.371 16.8536C20.0678 16.793 19.7344 16.7626 19.4313 16.793C18.825 16.8233 17.9459 16.9748 17.37 17.278C17.0668 17.3992 16.794 17.6114 16.5818 17.7933L16.4909 17.8842C16.2787 18.0661 16.0968 18.248 15.9756 18.4905C15.733 18.8543 15.5512 19.309 15.4905 19.794V26.4023H13.5202V14.3982H15.4905V16.793L15.6421 16.6414L16.1271 16.2776C16.1877 16.2473 16.2408 16.2094 16.2938 16.1715C16.3469 16.1337 16.3999 16.0958 16.4606 16.0654C16.5212 16.0048 16.5818 15.9745 16.6424 15.9442C17.279 15.5501 17.9762 15.2167 18.7947 14.9135C19.1281 14.7923 19.5222 14.671 19.9466 14.5498L20.3103 14.4588C20.3558 14.4437 20.3937 14.4361 20.4316 14.4285L20.4316 14.4285L20.4316 14.4285C20.4695 14.4209 20.5074 14.4134 20.5529 14.3982C20.5832 14.3982 20.6059 14.3906 20.6286 14.3831ZM27.6769 19.6727L27.7678 19.703C29.8594 20.4609 31.9814 21.249 31.9814 23.1891C31.951 24.7047 30.7991 26.5235 27.6162 26.6145H27.3737C24.009 26.6145 22.4024 24.7654 21.978 23.0072L21.9173 22.795H24.0393L24.0696 22.9162C24.7668 24.7654 25.949 25.6444 27.6466 25.5838C29.2532 25.5535 30.0716 25.0079 30.0716 23.9469C30.1019 22.8253 29.3441 22.1584 26.9494 21.2187C26.9323 21.2017 26.9057 21.1942 26.875 21.1856C26.8509 21.1788 26.8244 21.1714 26.7978 21.1581H26.7675C26.7372 21.1429 26.6993 21.1278 26.6614 21.1126C26.6235 21.0975 26.5856 21.0823 26.5553 21.0671C24.7668 20.4306 22.5539 19.6121 22.5842 17.6417C22.5842 17.278 22.7358 14.2467 26.7978 14.2467C30.4657 14.2467 32.042 16.3383 32.2845 18.1267L32.3148 18.3389H30.3444L30.3141 18.1874C30.1019 17.3386 29.3138 15.3986 26.6462 15.3986C25.4337 15.3986 24.403 16.0654 24.3727 16.8839C24.3424 17.9145 25.0699 18.6421 27.01 19.4302C27.0251 19.4302 27.0327 19.4378 27.0403 19.4454C27.0479 19.4529 27.0555 19.4605 27.0706 19.4605C27.2011 19.4978 27.3315 19.5465 27.455 19.5926C27.5323 19.6215 27.6068 19.6494 27.6769 19.6727Z" fill="#1E1E1E"/>
</svg>
