<svg width="1920" height="1007" viewBox="0 0 1920 1007" fill="none" xmlns="http://www.w3.org/2000/svg">
<rect width="1918" height="800" transform="translate(0 164)" fill="url(#paint0_linear_3953_10348)"/>
<path d="M37.9561 177.832C36.6364 151.832 5.74466 140.665 -7.68528 142.126L-8 279C-4.85178 272.736 1.1286 266.158 3.0174 255.195C8.36288 224.17 39.3232 204.767 37.9561 177.832Z" fill="#1F5469"/>
<path d="M108.351 142.071C131.357 140.889 150.128 154.808 156.637 161.916C165.865 170.149 170.158 179.86 166.938 184.927C163.719 189.994 153.204 184.716 135.177 187.46C117.15 190.205 97.1917 218.916 93.3288 222.928C89.4659 226.939 77.2333 237.495 65.43 228.417C53.6267 219.339 49.3346 201.816 53.6267 180.283C57.9188 158.749 79.594 143.549 108.351 142.071Z" fill="#EEF651"/>
<path d="M52.8433 250.413C37.7203 241.753 19.1316 247.322 9.36464 254.434C-12.0596 268.044 -13.95 309.49 -0.40229 317.532C16.4887 327.559 32.6793 323.409 46.8571 308.253C61.0349 293.097 71.747 261.239 52.8433 250.413Z" fill="#F395A9"/>
<path d="M1680.94 0.241984C1679.72 78.824 1695.75 240.598 1770.06 265.95C1862.96 297.639 1929.14 144.812 2095.97 170.823C2254.26 195.5 2299.08 325.213 2308.73 340.199" stroke="white" stroke-width="8"/>
<path d="M1884.52 453.8C1872.67 432.002 1879.22 398.222 1887.16 386.063C1895.11 373.904 1915.63 362.966 1926.12 368.229C1928.62 409.304 1927.41 476.649 1927.58 490.838C1927.65 496.344 1900.98 484.059 1884.52 453.8Z" fill="#EEF651"/>
<path d="M1863.94 351.675C1867.11 311.599 1921.32 274.773 1941.06 258.999L1942.68 394.501C1935.72 397.57 1916.83 403.418 1896.99 402.266C1875.68 400.761 1861.4 383.641 1863.94 351.675Z" fill="#1F5469"/>
<path d="M924.5 967.002C886.58 919.221 824.5 728.892 724.941 766.088C653.581 792.75 672.017 900.561 559.051 967.004C451.878 1030.04 378.162 990.708 365 986.454" stroke="white" stroke-width="8"/>
<mask id="mask0_3953_10348" style="mask-type:alpha" maskUnits="userSpaceOnUse" x="659" y="683" width="522" height="281">
<rect x="659" y="683" width="522" height="281" fill="#D9D9D9"/>
</mask>
<g mask="url(#mask0_3953_10348)">
<g filter="url(#filter0_b_3953_10348)">
<path d="M995.852 952.261C1053.46 986.815 1007.58 1031.97 1018.53 1057.31L879.032 1152.97C826.362 1136.37 736.76 1056.08 754.178 1001.63C768.145 957.963 824.319 895.361 855.693 901.994C887.066 908.626 900.262 935.654 924.341 941.669C954.951 949.316 963.173 932.661 995.852 952.261Z" fill="#F395A9"/>
</g>
<path d="M746.748 922.513C733.98 934.037 744.963 956.192 752.05 965.829C770.972 972.782 807.48 993.177 808.301 986.156L808.343 985.794C810.158 970.277 811.585 958.075 803.23 944.677C791.814 926.373 762.708 908.108 746.748 922.513Z" fill="#258884"/>
</g>
<defs>
<filter id="filter0_b_3953_10348" x="721.967" y="871.507" width="333.605" height="311.465" filterUnits="userSpaceOnUse" color-interpolation-filters="sRGB">
<feFlood flood-opacity="0" result="BackgroundImageFix"/>
<feGaussianBlur in="BackgroundImageFix" stdDeviation="15"/>
<feComposite in2="SourceAlpha" operator="in" result="effect1_backgroundBlur_3953_10348"/>
<feBlend mode="normal" in="SourceGraphic" in2="effect1_backgroundBlur_3953_10348" result="shape"/>
</filter>
<linearGradient id="paint0_linear_3953_10348" x1="959" y1="0" x2="959" y2="800" gradientUnits="userSpaceOnUse">
<stop stop-color="white"/>
<stop offset="1" stop-color="#FDF9F9"/>
</linearGradient>
</defs>
</svg>
