<svg width="355" height="683" viewBox="0 0 355 683" fill="none" xmlns="http://www.w3.org/2000/svg">
<g opacity="0.2" filter="url(#filter0_b_3954_9754)">
<path d="M25.7359 667.468C-127.884 731.098 -152.755 579.557 -220 565.596L-211.294 162.63C-101.204 83.6556 191.502 21.5314 276.527 130.842C344.707 218.496 382.867 306.653 329 406.499C275.133 506.345 198.128 505.362 150.991 543.655C91.07 592.333 112.875 631.374 25.7359 667.468Z" fill="#F6DFE3"/>
</g>
<path d="M51.7088 127.025C30.1816 136.785 8.10721 110.712 -0.239097 96.4561C1.24501 68.745 -4.72632 11.4321 4.60735 14.2664L5.08807 14.4124C25.7159 20.6755 41.9378 25.6008 54.3547 43.5306C71.3193 68.027 78.6177 114.825 51.7088 127.025Z" fill="#1F5469"/>
<path d="M53.3252 422.796C41.6359 415.935 -17.7345 407.166 -25.2838 412.801C-41.8437 423.583 1.69755 469.598 12.1692 475.969C25.225 483.912 37.7395 480.624 48.6982 468.618C59.6569 456.611 67.9368 431.372 53.3252 422.796Z" fill="#F395A9"/>
<path d="M121.761 561.758C115.904 563.232 113.405 569.263 113.306 573.522C112.511 582.346 124.109 593.599 129.438 592.352C136.083 590.798 138.463 585.727 137.206 578.287C135.949 570.848 129.083 559.915 121.761 561.758Z" fill="#258884"/>
<path d="M228.023 260.12C220.926 255.958 212.202 258.634 207.619 262.052C197.564 268.592 196.677 288.507 203.035 292.372C210.962 297.19 218.56 295.196 225.213 287.913C231.867 280.63 236.894 265.321 228.023 260.12Z" fill="#EEF651"/>
<defs>
<filter id="filter0_b_3954_9754" x="-250" y="41.999" width="634.492" height="671" filterUnits="userSpaceOnUse" color-interpolation-filters="sRGB">
<feFlood flood-opacity="0" result="BackgroundImageFix"/>
<feGaussianBlur in="BackgroundImageFix" stdDeviation="15"/>
<feComposite in2="SourceAlpha" operator="in" result="effect1_backgroundBlur_3954_9754"/>
<feBlend mode="normal" in="SourceGraphic" in2="effect1_backgroundBlur_3954_9754" result="shape"/>
</filter>
</defs>
</svg>
