<svg width="1918" height="562" viewBox="0 0 1918 562" fill="none" xmlns="http://www.w3.org/2000/svg">
<g clip-path="url(#clip0_5520_26894)">
<mask id="path-1-inside-1_5520_26894" fill="white">
<path d="M0 0H1918V562H0V0Z"/>
</mask>
<path d="M0 0H1918V562H0V0Z" fill="url(#paint0_linear_5520_26894)"/>
<path d="M37.9561 191.832C36.6364 165.832 5.74466 154.665 -7.68528 156.126L-8 293C-4.85178 286.736 1.1286 280.158 3.0174 269.195C8.36288 238.17 39.3232 218.767 37.9561 191.832Z" fill="#1F5469"/>
<path d="M108.351 156.071C131.357 154.889 150.128 168.808 156.637 175.916C165.865 184.149 170.158 193.86 166.938 198.927C163.719 203.994 153.204 198.716 135.177 201.46C117.15 204.205 97.1917 232.916 93.3288 236.928C89.4659 240.939 77.2333 251.495 65.43 242.417C53.6267 233.339 49.3346 215.816 53.6267 194.283C57.9188 172.749 79.594 157.549 108.351 156.071Z" fill="#EEF651"/>
<path d="M52.8433 264.413C37.7203 255.753 19.1316 261.322 9.36464 268.434C-12.0596 282.044 -13.95 323.49 -0.40229 331.532C16.4887 341.559 32.6793 337.409 46.8571 322.253C61.0349 307.097 71.747 275.239 52.8433 264.413Z" fill="#F395A9"/>
<path d="M1620.94 -25.758C1619.72 52.824 1635.75 214.598 1710.06 239.95C1802.96 271.639 1869.14 118.812 2035.97 144.823C2194.26 169.5 2239.08 299.213 2248.73 314.199" stroke="white" stroke-width="8"/>
<path d="M1884.52 467.8C1872.67 446.002 1879.22 412.222 1887.16 400.063C1895.11 387.904 1915.63 376.966 1926.12 382.229C1928.62 423.304 1927.42 490.649 1927.59 504.838C1927.65 510.344 1900.98 498.059 1884.52 467.8Z" fill="#EEF651"/>
<path d="M1863.93 365.675C1867.11 325.599 1921.32 288.773 1941.05 272.999L1942.68 408.501C1935.71 411.57 1916.83 417.418 1896.98 416.266C1875.68 414.761 1861.4 397.641 1863.93 365.675Z" fill="#1F5469"/>
<mask id="mask0_5520_26894" style="mask-type:alpha" maskUnits="userSpaceOnUse" x="339" y="281" width="522" height="281">
<rect x="339" y="281" width="522" height="281" fill="#D9D9D9"/>
</mask>
<g mask="url(#mask0_5520_26894)">
<g filter="url(#filter0_b_5520_26894)">
<path d="M675.851 550.261C733.46 584.815 687.577 629.968 698.531 655.314L559.031 750.972C506.361 734.367 416.759 654.079 434.177 599.627C448.144 555.963 504.318 493.361 535.692 499.994C567.066 506.626 580.261 533.654 604.34 539.669C634.95 547.316 643.172 530.661 675.851 550.261Z" fill="#F395A9"/>
</g>
<path d="M426.749 520.513C413.981 532.037 424.964 554.192 432.051 563.829C450.973 570.782 487.481 591.177 488.302 584.156L488.344 583.794C490.159 568.277 491.586 556.075 483.231 542.677C471.815 524.373 442.709 506.108 426.749 520.513Z" fill="#258884"/>
</g>
</g>
<path d="M1918 561H0V563H1918V561Z" fill="#BDBDBD" mask="url(#path-1-inside-1_5520_26894)"/>
<defs>
<filter id="filter0_b_5520_26894" x="401.965" y="469.507" width="333.605" height="311.465" filterUnits="userSpaceOnUse" color-interpolation-filters="sRGB">
<feFlood flood-opacity="0" result="BackgroundImageFix"/>
<feGaussianBlur in="BackgroundImageFix" stdDeviation="15"/>
<feComposite in2="SourceAlpha" operator="in" result="effect1_backgroundBlur_5520_26894"/>
<feBlend mode="normal" in="SourceGraphic" in2="effect1_backgroundBlur_5520_26894" result="shape"/>
</filter>
<linearGradient id="paint0_linear_5520_26894" x1="959" y1="0" x2="959" y2="562" gradientUnits="userSpaceOnUse">
<stop stop-color="white"/>
<stop offset="1" stop-color="#FAF0F0"/>
</linearGradient>
<clipPath id="clip0_5520_26894">
<path d="M0 0H1918V562H0V0Z" fill="white"/>
</clipPath>
</defs>
</svg>
