<svg width="516" height="498" viewBox="0 0 516 498" fill="none" xmlns="http://www.w3.org/2000/svg">
<path d="M335.828 154.319C374.898 231.736 473.251 235.175 477.204 271.548C480.689 303.599 465.439 336.268 444.275 344.871C423.11 353.475 427.761 357.603 359.098 357.603L165.035 357.603C141.766 357.603 72.448 312.592 56.7534 258.445C41.0587 204.298 67.186 140.542 128.485 83.2797C189.785 26.0176 288.41 60.3614 335.828 154.319Z" fill="#1F5469"/>
<path d="M412.431 392.208C396.121 395.041 381.514 386.569 376.25 381.979C368.948 376.807 365.039 370.14 366.893 366.193C368.748 362.245 376.71 365.165 389.332 361.628C401.954 358.091 413.687 335.575 416.093 332.337C418.499 329.099 426.305 320.401 435.518 325.964C444.731 331.526 449.322 343.852 448.139 359.822C446.956 375.791 432.818 388.666 412.431 392.208Z" fill="#EEF651"/>
<path d="M181.068 1.73452C197.571 0.444889 211.318 10.2502 216.128 15.3141C222.912 21.1489 226.179 28.1534 223.962 31.9092C221.745 35.665 214.092 32.0103 201.194 34.3471C188.296 36.6839 174.5 57.9989 171.801 60.9967C169.102 63.9944 160.514 71.9217 151.863 65.5188C143.213 59.1159 139.8 46.4134 142.477 30.6254C145.154 14.8374 160.438 3.34657 181.068 1.73452Z" fill="#F395A9"/>
<path d="M175.045 43.4532C168.726 43.0475 165.259 48.6322 164.547 53.1372C162.459 62.272 172.948 78.1774 178.685 78.6472C185.837 79.2329 189.043 74.6317 188.794 66.2796C188.545 57.9275 182.945 43.9603 175.045 43.4532Z" fill="#EEF651"/>
</svg>
