<?xml version="1.0" encoding="utf-8"?><svg xmlns="http://www.w3.org/2000/svg" xmlns:xlink="http://www.w3.org/1999/xlink"><symbol viewBox="0 0 24 24" id="email" xmlns="http://www.w3.org/2000/svg"><rect x="4" y="6" width="16" height="12" rx="2"/><path d="M4 8l7.106 3.553a2 2 0 001.788 0L20 8"/></symbol><symbol viewBox="0 0 21 21" id="fb" xmlns="http://www.w3.org/2000/svg"><g clip-path="url(#bclip0_4305_7390)"><path d="M14.845 11.107l.518-3.413h-3.242V5.481c0-.934.452-1.845 1.904-1.845H15.5V.73S14.162.5 12.884.5c-2.672 0-4.416 1.635-4.416 4.593v2.601H5.5v3.413h2.968v8.25a11.639 11.639 0 003.653 0v-8.25h2.724z"/></g><defs><clipPath id="bclip0_4305_7390"><path transform="translate(.5 .386)" d="M0 0h20v20H0z"/></clipPath></defs></symbol><symbol viewBox="0 0 21 21" id="instagram" xmlns="http://www.w3.org/2000/svg"><g clip-path="url(#cclip0_4305_6308)"><path d="M10.5 2.188c2.672 0 2.985.012 4.041.06.977.043 1.505.206 1.858.345.469.183.802.397 1.151.746.35.35.568.683.747 1.152.135.353.302.88.345 1.857.048 1.056.06 1.37.06 4.042 0 2.671-.012 2.985-.06 4.041-.043.977-.206 1.505-.345 1.858a3.104 3.104 0 01-.747 1.151c-.349.35-.682.568-1.15.746-.354.135-.882.302-1.859.346-1.056.047-1.37.06-4.041.06-2.672 0-2.985-.012-4.041-.06-.977-.044-1.505-.207-1.858-.346a3.104 3.104 0 01-1.151-.746 3.055 3.055 0 01-.747-1.151c-.135-.353-.301-.881-.345-1.858-.048-1.056-.06-1.37-.06-4.041 0-2.672.012-2.986.06-4.042.044-.976.206-1.504.345-1.857.183-.469.397-.802.747-1.152.349-.35.682-.567 1.15-.746.354-.135.882-.302 1.859-.345 1.056-.052 1.373-.06 4.041-.06zm0-1.802c-2.715 0-3.057.012-4.125.06C5.311.492 4.585.663 3.95.91c-.66.254-1.215.6-1.77 1.155a4.96 4.96 0 00-1.156 1.77C.778 4.472.607 5.198.56 6.266.512 7.33.5 7.67.5 10.385c0 2.716.012 3.058.06 4.125.047 1.064.218 1.79.464 2.43.254.659.6 1.215 1.155 1.77a4.96 4.96 0 001.77 1.156c.636.246 1.362.416 2.43.464 1.068.048 1.406.06 4.125.06 2.72 0 3.057-.012 4.125-.06 1.064-.047 1.79-.218 2.43-.464a4.874 4.874 0 001.77-1.155 4.96 4.96 0 001.155-1.771c.246-.635.417-1.362.464-2.43.048-1.067.06-1.405.06-4.124 0-2.72-.012-3.057-.06-4.125-.047-1.064-.218-1.79-.464-2.43a4.873 4.873 0 00-1.155-1.77 4.96 4.96 0 00-1.77-1.155C16.422.66 15.695.489 14.628.44 13.557.398 13.215.386 10.5.386z"/><path d="M10.5 5.253a5.138 5.138 0 10.002 10.275A5.138 5.138 0 0010.5 5.253zm0 8.467a3.334 3.334 0 110-6.668 3.334 3.334 0 010 6.668zm5.34-7.475a1.199 1.199 0 100-2.398 1.199 1.199 0 000 2.398z"/></g><defs><clipPath id="cclip0_4305_6308"><path transform="translate(.5 .386)" d="M0 0h20v20H0z"/></clipPath></defs></symbol><symbol viewBox="0 0 24 24" id="phone" xmlns="http://www.w3.org/2000/svg"><path d="M17.707 13.707l2.648 2.648a.912.912 0 010 1.29 5.471 5.471 0 01-7.151.508l-1.575-1.182a22.996 22.996 0 01-4.6-4.6l-1.182-1.575a5.471 5.471 0 01.508-7.151.912.912 0 011.29 0l2.648 2.648a1 1 0 010 1.414L9.272 8.728a.533.533 0 00-.1.616 12.262 12.262 0 005.484 5.484.533.533 0 00.616-.1l1.02-1.02a1 1 0 011.415 0z"/></symbol><symbol viewBox="0 0 24 25" id="pin" xmlns="http://www.w3.org/2000/svg"><path d="M12.398 20.375l.368.71-.368-.71zm-.796 0l-.368.71.368-.71zm6.598-8.804c0 2.219-1.13 4.036-2.513 5.432-1.383 1.394-2.952 2.296-3.657 2.662l.736 1.42c.778-.403 2.51-1.395 4.057-2.956 1.547-1.56 2.977-3.76 2.977-6.558h-1.6zm-6.2-6.2a6.2 6.2 0 016.2 6.2h1.6a7.8 7.8 0 00-7.8-7.8v1.6zm-6.2 6.2a6.2 6.2 0 016.2-6.2v-1.6a7.8 7.8 0 00-7.8 7.8h1.6zm6.17 8.094c-.705-.366-2.274-1.268-3.657-2.662C6.93 15.607 5.8 13.79 5.8 11.57H4.2c0 2.798 1.43 4.998 2.977 6.558 1.547 1.561 3.28 2.553 4.057 2.956l.736-1.42zm.06 0a.064.064 0 01-.03.009.064.064 0 01-.03-.009l-.736 1.42a1.654 1.654 0 001.532 0l-.736-1.42zm2.17-8.094a2.2 2.2 0 01-2.2 2.2v1.6a3.8 3.8 0 003.8-3.8h-1.6zm-2.2-2.2a2.2 2.2 0 012.2 2.2h1.6a3.8 3.8 0 00-3.8-3.8v1.6zm-2.2 2.2a2.2 2.2 0 012.2-2.2v-1.6a3.8 3.8 0 00-3.8 3.8h1.6zm2.2 2.2a2.2 2.2 0 01-2.2-2.2H8.2a3.8 3.8 0 003.8 3.8v-1.6z"/></symbol><symbol viewBox="0 0 24 24" id="search" xmlns="http://www.w3.org/2000/svg"><circle cx="11" cy="11" r="6"/><path d="M19 20l-3-3"/></symbol><symbol viewBox="0 0 21 21" id="tiktok" xmlns="http://www.w3.org/2000/svg"><g clip-path="url(#gclip0_4305_7379)"><path d="M14.867.386h-3.453v13.623c0 1.623-1.328 2.956-2.98 2.956-1.653 0-2.981-1.333-2.981-2.956 0-1.594 1.298-2.899 2.892-2.957v-3.42C4.833 7.69 2 10.502 2 14.01c0 3.536 2.892 6.377 6.463 6.377 3.57 0 6.463-2.87 6.463-6.377V7.023A8.124 8.124 0 0019.5 8.531V5.11c-2.597-.088-4.633-2.175-4.633-4.725z"/></g><defs><clipPath id="gclip0_4305_7379"><path transform="translate(.5 .386)" d="M0 0h20v20H0z"/></clipPath></defs></symbol></svg>