<?xml version="1.0" encoding="utf-8"?><svg viewBox="0 0 24 25" xmlns="http://www.w3.org/2000/svg" xmlns:xlink="http://www.w3.org/1999/xlink"><style></style><svg fill="none" viewBox="0 0 24 24" id="cart" xmlns="http://www.w3.org/2000/svg"><path d="M8 11V7a4 4 0 014-4v0a4 4 0 014 4v4" stroke="#1E1E1E" stroke-width="2" stroke-linecap="round"/><path d="M3.694 12.668c.145-1.741.218-2.611.792-3.14C5.06 9 5.934 9 7.681 9h8.639c1.746 0 2.62 0 3.194.528.574.528.647 1.399.792 3.14l.514 6.166c.084 1.013.126 1.52-.17 1.843-.298.323-.806.323-1.824.323H5.174c-1.017 0-1.526 0-1.823-.323-.297-.323-.255-.83-.17-1.843l.513-6.166z" stroke="#1E1E1E" stroke-width="2"/></svg><svg fill="none" viewBox="0 0 24 24" id="email" xmlns="http://www.w3.org/2000/svg"><rect x="4" y="6" width="16" height="12" rx="2" stroke="#1E1E1E" stroke-width="2"/><path d="M4 8l7.106 3.553a2 2 0 001.788 0L20 8" stroke="#1E1E1E" stroke-width="2"/></svg><svg fill="none" viewBox="0 0 24 24" id="favorite" xmlns="http://www.w3.org/2000/svg"><path d="M4.45 13.908l6.953 6.531c.24.225.36.338.5.366a.5.5 0 00.193 0c.142-.028.261-.14.5-.366l6.953-6.53a5.203 5.203 0 00.549-6.983l-.31-.399c-1.968-2.536-5.918-2.111-7.301.787a.54.54 0 01-.974 0C10.13 4.416 6.18 3.99 4.212 6.527l-.31.4a5.203 5.203 0 00.549 6.981z" stroke="#1E1E1E" stroke-width="2"/></svg><svg fill="none" viewBox="0 0 24 24" id="phone" xmlns="http://www.w3.org/2000/svg"><path d="M17.707 13.707l2.648 2.648a.912.912 0 010 1.29 5.471 5.471 0 01-7.151.508l-1.575-1.182a22.996 22.996 0 01-4.6-4.6l-1.182-1.575a5.471 5.471 0 01.508-7.151.912.912 0 011.29 0l2.648 2.648a1 1 0 010 1.414L9.272 8.728a.533.533 0 00-.1.616 12.262 12.262 0 005.484 5.484.533.533 0 00.616-.1l1.02-1.02a1 1 0 011.415 0z" stroke="#1E1E1E" stroke-width="2"/></svg><svg fill="none" viewBox="0 0 24 25" id="pin" xmlns="http://www.w3.org/2000/svg"><path d="M12.398 20.375l.368.71-.368-.71zm-.796 0l-.368.71.368-.71zm6.598-8.804c0 2.219-1.13 4.036-2.513 5.432-1.383 1.394-2.952 2.296-3.657 2.662l.736 1.42c.778-.403 2.51-1.395 4.057-2.956 1.547-1.56 2.977-3.76 2.977-6.558h-1.6zm-6.2-6.2a6.2 6.2 0 016.2 6.2h1.6a7.8 7.8 0 00-7.8-7.8v1.6zm-6.2 6.2a6.2 6.2 0 016.2-6.2v-1.6a7.8 7.8 0 00-7.8 7.8h1.6zm6.17 8.094c-.705-.366-2.274-1.268-3.657-2.662C6.93 15.607 5.8 13.79 5.8 11.57H4.2c0 2.798 1.43 4.998 2.977 6.558 1.547 1.561 3.28 2.553 4.057 2.956l.736-1.42zm.06 0a.064.064 0 01-.03.009.064.064 0 01-.03-.009l-.736 1.42a1.654 1.654 0 001.532 0l-.736-1.42zm2.17-8.094a2.2 2.2 0 01-2.2 2.2v1.6a3.8 3.8 0 003.8-3.8h-1.6zm-2.2-2.2a2.2 2.2 0 012.2 2.2h1.6a3.8 3.8 0 00-3.8-3.8v1.6zm-2.2 2.2a2.2 2.2 0 012.2-2.2v-1.6a3.8 3.8 0 00-3.8 3.8h1.6zm2.2 2.2a2.2 2.2 0 01-2.2-2.2H8.2a3.8 3.8 0 003.8 3.8v-1.6z" fill="#1E1E1E"/></svg><svg fill="none" viewBox="0 0 24 24" id="search" xmlns="http://www.w3.org/2000/svg"><circle cx="11" cy="11" r="6" stroke="#1E1E1E" stroke-width="2"/><path d="M19 20l-3-3" stroke="#1E1E1E" stroke-width="2" stroke-linecap="round"/></svg><svg fill="none" viewBox="0 0 24 24" id="user" xmlns="http://www.w3.org/2000/svg"><path d="M19.727 20.447c-.455-1.276-1.46-2.403-2.857-3.207C15.473 16.436 13.761 16 12 16c-1.761 0-3.473.436-4.87 1.24-1.397.804-2.402 1.931-2.857 3.207" stroke="#1E1E1E" stroke-width="2" stroke-linecap="round"/><circle cx="12" cy="8" r="4" stroke="#1E1E1E" stroke-width="2" stroke-linecap="round"/></svg></svg>