<svg width="13" height="13" viewBox="0 0 13 13" fill="none" xmlns="http://www.w3.org/2000/svg">
<path d="M4.29289 4.68172C3.90237 4.29119 3.90237 3.65803 4.29289 3.2675C4.68342 2.87698 5.31658 2.87698 5.70711 3.2675L4.29289 4.68172ZM8 6.97461L8.70711 6.2675L9.41421 6.97461L8.70711 7.68172L8 6.97461ZM5.70711 10.6817C5.31658 11.0722 4.68342 11.0722 4.29289 10.6817C3.90237 10.2912 3.90237 9.65803 4.29289 9.2675L5.70711 10.6817ZM5.70711 3.2675L8.70711 6.2675L7.29289 7.68172L4.29289 4.68172L5.70711 3.2675ZM8.70711 7.68172L5.70711 10.6817L4.29289 9.2675L7.29289 6.2675L8.70711 7.68172Z" fill="white"/>
</svg>
