<svg width="13" height="13" viewBox="0 0 13 13" fill="none" xmlns="http://www.w3.org/2000/svg">
<path d="M8.70711 4.68172C9.09763 4.29119 9.09763 3.65803 8.70711 3.2675C8.31658 2.87698 7.68342 2.87698 7.29289 3.2675L8.70711 4.68172ZM5 6.97461L4.29289 6.2675L3.58579 6.97461L4.29289 7.68172L5 6.97461ZM7.29289 10.6817C7.68342 11.0722 8.31658 11.0722 8.70711 10.6817C9.09763 10.2912 9.09763 9.65803 8.70711 9.2675L7.29289 10.6817ZM7.29289 3.2675L4.29289 6.2675L5.70711 7.68172L8.70711 4.68172L7.29289 3.2675ZM4.29289 7.68172L7.29289 10.6817L8.70711 9.2675L5.70711 6.2675L4.29289 7.68172Z" fill="#258884"/>
</svg>
