<svg width="48" height="24" viewBox="0 0 48 24" fill="none" xmlns="http://www.w3.org/2000/svg">
<g clip-path="url(#clip0_4649_16533)">
<rect width="48" height="24" />
<path d="M12 24.05C13.8517 21.6268 14.85 20.39 16.31 18.59C19.19 15.04 22.09 11.51 25.02 8.01004C25.62 7.29004 25.57 6.84004 24.98 6.11004C23.36 4.12004 21.761 2.14353 20.24 0.0400391H25.74C27.3556 1.84025 28.8 3.64004 30.34 5.44004C31.51 6.82004 31.48 7.31004 30.36 8.71004C28.38 11.17 26.34 13.59 24.38 16.06C22.26 18.73 20.2297 21.2423 18 24.04H12V24.05Z" fill="url(#paint0_linear_4649_16533)"/>
<path d="M12.0076 24.04C12.0051 24.0434 12.0025 24.0467 12 24.05V24.04H12.0076C13.8544 21.6234 14.852 20.3876 16.31 18.59C19.19 15.04 22.09 11.51 25.02 8.01004C25.02 8.01004 27.3706 5.33808 27.8304 4.72508C28.2902 4.11207 27.9919 2.71948 27.9919 2.71948C29.6074 4.51969 28.8 3.64004 30.34 5.44004C31.51 6.82004 31.48 7.31004 30.36 8.71004C28.38 11.17 26.34 13.59 24.38 16.06C22.26 18.73 20.2297 21.2423 18 24.04H12.0076Z" fill="#D9D9D9"/>
<path d="M12.0076 24.04C12.0051 24.0434 12.0025 24.0467 12 24.05V24.04H12.0076C13.8544 21.6234 14.852 20.3876 16.31 18.59C19.19 15.04 22.09 11.51 25.02 8.01004C25.02 8.01004 27.3706 5.33808 27.8304 4.72508C28.2902 4.11207 27.9919 2.71948 27.9919 2.71948C29.6074 4.51969 28.8 3.64004 30.34 5.44004C31.51 6.82004 31.48 7.31004 30.36 8.71004C28.38 11.17 26.34 13.59 24.38 16.06C22.26 18.73 20.2297 21.2423 18 24.04H12.0076Z" fill="url(#paint1_linear_4649_16533)"/>
<path d="M20.5002 24.0501C24.4051 19.2671 28.4202 14.3901 32.3702 9.56008C32.8402 8.99008 33.2202 8.84008 33.7102 9.56008C34.2602 10.3401 34.8902 11.0601 35.4902 11.8101C35.9402 12.3701 35.7802 12.7401 35.4902 13.0601C34.2302 14.5901 32.9802 16.1401 31.6902 17.6501C29.8602 19.7801 28.2835 21.7126 26.2402 24.0601H20.4902L20.5002 24.0501Z" fill="url(#paint2_linear_4649_16533)"/>
<path d="M18.5029 0.0489187C19.7729 2.04892 21.4429 3.73892 22.9229 5.56892C24.1529 7.07892 24.1929 7.04892 22.9029 8.54892C21.1029 10.6389 21.0829 10.6589 19.3329 8.52892C17.3029 6.06892 15.3029 3.57892 13.2729 1.10892C13.0429 0.818919 12.7629 0.568919 12.5029 0.298919C12.4629 -0.191081 12.8429 0.0689187 13.0029 0.0689187C14.8329 0.0489187 16.6729 0.0589187 18.5029 0.0589187V0.0489187Z" fill="black"/>
<path d="M18.5029 0.0489187C19.7729 2.04892 21.4429 3.73892 22.9229 5.56892C24.1529 7.07892 24.1929 7.04892 22.9029 8.54892C21.1029 10.6389 21.0829 10.6589 19.3329 8.52892C17.3029 6.06892 15.3029 3.57892 13.2729 1.10892C13.0429 0.818919 12.7629 0.568919 12.5029 0.298919C12.4629 -0.191081 12.8429 0.0689187 13.0029 0.0689187C14.8329 0.0489187 16.6729 0.0589187 18.5029 0.0589187V0.0489187Z" fill="url(#paint3_linear_4649_16533)"/>
</g>
<defs>
<linearGradient id="paint0_linear_4649_16533" x1="10.5149" y1="0.040039" x2="37.7421" y2="23.8307" gradientUnits="userSpaceOnUse">
<stop stop-color="#F7BA60"/>
<stop offset="1" stop-color="#E94834"/>
</linearGradient>
<linearGradient id="paint1_linear_4649_16533" x1="28.2553" y1="2.71948" x2="11.3501" y2="22.0108" gradientUnits="userSpaceOnUse">
<stop stop-color="#F7BA60"/>
<stop offset="1" stop-color="#E94834"/>
</linearGradient>
<linearGradient id="paint2_linear_4649_16533" x1="33.4214" y1="9.07471" x2="21.8244" y2="24.0601" gradientUnits="userSpaceOnUse">
<stop stop-color="#F7BA60"/>
<stop offset="1" stop-color="#E94834"/>
</linearGradient>
<linearGradient id="paint3_linear_4649_16533" x1="11.6219" y1="-3.59276e-08" x2="22.9685" y2="13.9066" gradientUnits="userSpaceOnUse">
<stop stop-color="#F7BA60"/>
<stop offset="1" stop-color="#E94834"/>
</linearGradient>
<clipPath id="clip0_4649_16533">
<rect width="48" height="24" fill="white"/>
</clipPath>
</defs>
</svg>
