<svg width="25" height="24" viewBox="0 0 25 24" fill="none" xmlns="http://www.w3.org/2000/svg">
<path d="M2.33301 12C2.33301 10.6868 2.59167 9.38642 3.09421 8.17317C3.59676 6.95991 4.33335 5.85752 5.26194 4.92893C6.19053 4.00035 7.29292 3.26375 8.50617 2.7612C9.71943 2.25866 11.0198 2 12.333 2C13.6462 2 14.9466 2.25866 16.1598 2.7612C17.3731 3.26375 18.4755 4.00035 19.4041 4.92893C20.3327 5.85752 21.0693 6.95991 21.5718 8.17317C22.0744 9.38642 22.333 10.6868 22.333 12C22.333 13.3132 22.0743 14.6136 21.5718 15.8268C21.0693 17.0401 20.3327 18.1425 19.4041 19.0711C18.4755 19.9997 17.3731 20.7362 16.1598 21.2388C14.9466 21.7413 13.6462 22 12.333 22C11.0198 22 9.71943 21.7413 8.50617 21.2388C7.29292 20.7362 6.19052 19.9997 5.26194 19.0711C4.33335 18.1425 3.59676 17.0401 3.09421 15.8268C2.59167 14.6136 2.33301 13.3132 2.33301 12L2.33301 12Z" stroke="#1E1E1E" stroke-width="1.6"/>
<path d="M12.333 12L12.333 18" stroke="#1E1E1E" stroke-width="1.6" stroke-linecap="round"/>
<path d="M12.333 6V7" stroke="#1E1E1E" stroke-width="1.6" stroke-linecap="round"/>
</svg>
