<svg width="123" height="18" viewBox="0 0 123 18" fill="none" xmlns="http://www.w3.org/2000/svg">
<path d="M9.5 14.7264L3.62919 18L4.9402 11.4262L0 6.87562L6.68155 6.08624L9.5 0L12.3185 6.08624L19 6.87562L14.0598 11.4262L15.3708 18L9.5 14.7264Z" fill="#FAD245"/>
<path d="M35.5 14.7264L29.6292 18L30.9402 11.4262L26 6.87562L32.6815 6.08624L35.5 0L38.3185 6.08624L45 6.87562L40.0598 11.4262L41.3708 18L35.5 14.7264Z" fill="#FAD245"/>
<path d="M61.5 14.7264L55.6292 18L56.9402 11.4262L52 6.87562L58.6815 6.08624L61.5 0L64.3185 6.08624L71 6.87562L66.0598 11.4262L67.3708 18L61.5 14.7264Z" fill="#FAD245"/>
<path d="M87.5 14.7264L81.6292 18L82.9402 11.4262L78 6.87562L84.6815 6.08624L87.5 0L90.3185 6.08624L97 6.87562L92.0598 11.4262L93.3708 18L87.5 14.7264Z" fill="#FAD245"/>
<path d="M113.5 14.7264L107.629 18L108.94 11.4262L104 6.87562L110.682 6.08624L113.5 0L116.318 6.08624L123 6.87562L118.06 11.4262L119.371 18L113.5 14.7264Z" fill="#FAD245"/>
</svg>
