<svg width="649" height="414" viewBox="0 0 649 414" fill="none" xmlns="http://www.w3.org/2000/svg">
<path d="M67.6623 375.537C168.862 419.937 214.496 348.37 224.662 307.037C244.329 292.037 290.262 257.437 316.662 239.037C349.662 216.037 314.162 146.037 224.662 144.037C135.163 142.037 51.6623 221.537 40.1623 231.037C28.6623 240.537 -58.8377 320.037 67.6623 375.537Z" fill="#F9EDF0"/>
<path d="M623.137 181C596.737 160.2 560.137 172.333 545.137 181L468.137 144L337.637 167.5C332.804 205 335.837 284.8 386.637 304C450.137 328 562.637 279.5 612.137 253.5C661.637 227.5 656.137 207 623.137 181Z" fill="#F9EDF0"/>
<path d="M482.346 172.638L476.163 119.888L468.373 113.672L525.676 147.565L482.346 172.638Z" fill="#F9ABB4"/>
<path d="M525.019 182.414V245.306L469.281 212.376L525.019 182.414Z" fill="#E26895"/>
<path d="M525.019 182.414V245.306L469.281 212.376L525.019 182.414Z" fill="url(#paint0_linear_4706_16845)"/>
<path d="M451.65 106.006L377.043 61.6001L377.043 183.817L451.65 228.018V106.006Z" fill="url(#paint1_linear_4706_16845)"/>
<path d="M525.016 63.2758L450.311 19.1226L450.301 67.454L480.568 121.079L525.016 147.517V63.2758Z" fill="#E26895"/>
<path d="M525.016 63.2758L450.311 19.1226L450.301 67.454L480.568 121.079L525.016 147.517V63.2758Z" fill="url(#paint2_linear_4706_16845)"/>
<path d="M451.65 228.021V106.053L484.708 86.9175V170.851L524.973 147.516V63.5386L557.994 44.4209V226.11L524.989 245.306V185.551L451.65 228.021Z" fill="url(#paint3_linear_4706_16845)"/>
<path d="M451.648 106.118L377 61.6899L410.066 42.5112L484.713 86.9216L451.648 106.118Z" fill="url(#paint4_linear_4706_16845)"/>
<path d="M524.965 63.541L450.281 19.144L483.343 0L558 44.4266L524.965 63.541Z" fill="#D9D9D9"/>
<path d="M524.965 63.541L450.281 19.144L483.343 0L558 44.4266L524.965 63.541Z" fill="url(#paint5_linear_4706_16845)"/>
<path d="M314.098 186.073L239.6 141.739L345.373 80.2007L420.08 124.594L314.098 186.073Z" fill="#D9D9D9"/>
<path d="M314.098 186.073L239.6 141.739L345.373 80.2007L420.08 124.594L314.098 186.073Z" fill="#F9ABB4"/>
<path d="M314.207 186.06L239.6 141.737L239.601 195.429L259.616 336.82L314.207 367.74V186.06Z" fill="#D9D9D9"/>
<path d="M314.207 186.06L239.6 141.737L239.601 195.429L259.616 336.82L314.207 367.74V186.06Z" fill="url(#paint6_linear_4706_16845)"/>
<path d="M395.108 163.8L330.909 199.304L330.803 257.445L387.337 291.142L395.108 163.8Z" fill="#D9D9D9"/>
<path d="M395.108 163.8L330.909 199.304L330.803 257.445L387.337 291.142L395.108 163.8Z" fill="url(#paint7_linear_4706_16845)"/>
<path d="M387.336 291.146L345.531 266.194L343.1 316.754L387.336 291.146Z" fill="#D9D9D9"/>
<path d="M387.336 291.146L345.531 266.194L343.1 316.754L387.336 291.146Z" fill="#F9ABB4"/>
<path fill-rule="evenodd" clip-rule="evenodd" d="M314.207 186.055V367.737L420.206 306.358V124.588L314.207 186.055ZM347.209 205.313V314.288L387.205 291.089V182.13L347.209 205.313Z" fill="#D9D9D9"/>
<path fill-rule="evenodd" clip-rule="evenodd" d="M314.207 186.055V367.737L420.206 306.358V124.588L314.207 186.055ZM347.209 205.313V314.288L387.205 291.089V182.13L347.209 205.313Z" fill="url(#paint8_linear_4706_16845)"/>
<path d="M194.346 340.638L188.163 287.888L180.373 281.672L237.676 315.565L194.346 340.638Z" fill="#F9ABB4"/>
<path d="M237.019 350.414V413.306L181.281 380.376L237.019 350.414Z" fill="#E26895"/>
<path d="M237.019 350.414V413.306L181.281 380.376L237.019 350.414Z" fill="url(#paint9_linear_4706_16845)"/>
<path d="M163.65 274.006L89.043 229.6L89.0428 351.817L163.65 396.018V274.006Z" fill="url(#paint10_linear_4706_16845)"/>
<path d="M237.016 231.276L162.311 187.123L162.301 235.454L192.568 289.079L237.016 315.517V231.276Z" fill="#E26895"/>
<path d="M237.016 231.276L162.311 187.123L162.301 235.454L192.568 289.079L237.016 315.517V231.276Z" fill="url(#paint11_linear_4706_16845)"/>
<path d="M163.65 396.021V274.053L196.708 254.917V338.851L236.973 315.516V231.539L269.994 212.421V394.11L236.989 413.306V353.551L163.65 396.021Z" fill="url(#paint12_linear_4706_16845)"/>
<path d="M163.648 274.118L89 229.69L122.066 210.511L196.713 254.922L163.648 274.118Z" fill="url(#paint13_linear_4706_16845)"/>
<path d="M236.965 231.541L162.281 187.144L195.343 168L270 212.427L236.965 231.541Z" fill="#D9D9D9"/>
<path d="M236.965 231.541L162.281 187.144L195.343 168L270 212.427L236.965 231.541Z" fill="url(#paint14_linear_4706_16845)"/>
<defs>
<linearGradient id="paint0_linear_4706_16845" x1="525.019" y1="198.31" x2="504.182" y2="246.321" gradientUnits="userSpaceOnUse">
<stop stop-color="#E26895"/>
<stop offset="1" stop-color="#E26895"/>
</linearGradient>
<linearGradient id="paint1_linear_4706_16845" x1="451.65" y1="103.662" x2="377.043" y2="190.626" gradientUnits="userSpaceOnUse">
<stop stop-color="#E26895"/>
<stop offset="1" stop-color="#E26895"/>
</linearGradient>
<linearGradient id="paint2_linear_4706_16845" x1="524.993" y1="51.3856" x2="471.218" y2="132.384" gradientUnits="userSpaceOnUse">
<stop stop-color="#E26895"/>
<stop offset="1" stop-color="#E26895"/>
</linearGradient>
<linearGradient id="paint3_linear_4706_16845" x1="504.822" y1="44.4209" x2="504.822" y2="245.306" gradientUnits="userSpaceOnUse">
<stop stop-color="#FDC8CE"/>
<stop offset="1" stop-color="#FDC8CE"/>
</linearGradient>
<linearGradient id="paint4_linear_4706_16845" x1="377" y1="50.182" x2="463.872" y2="106.118" gradientUnits="userSpaceOnUse">
<stop stop-color="#F9ABB4"/>
<stop offset="1" stop-color="#F9ABB4"/>
</linearGradient>
<linearGradient id="paint5_linear_4706_16845" x1="450.281" y1="7.65949" x2="537.109" y2="63.6306" gradientUnits="userSpaceOnUse">
<stop stop-color="#F9ABB4"/>
<stop offset="1" stop-color="#F9ABB4"/>
</linearGradient>
<linearGradient id="paint6_linear_4706_16845" x1="314.207" y1="198.842" x2="212.905" y2="285.816" gradientUnits="userSpaceOnUse">
<stop stop-color="#E26895"/>
<stop offset="1" stop-color="#E26895"/>
</linearGradient>
<linearGradient id="paint7_linear_4706_16845" x1="395.108" y1="195.985" x2="339.423" y2="269.096" gradientUnits="userSpaceOnUse">
<stop stop-color="#E26895"/>
<stop offset="1" stop-color="#E26895"/>
</linearGradient>
<linearGradient id="paint8_linear_4706_16845" x1="367.206" y1="124.588" x2="367.206" y2="367.737" gradientUnits="userSpaceOnUse">
<stop stop-color="#FDC8CE"/>
<stop offset="1" stop-color="#FDC8CE"/>
</linearGradient>
<linearGradient id="paint9_linear_4706_16845" x1="237.019" y1="366.31" x2="216.182" y2="414.321" gradientUnits="userSpaceOnUse">
<stop stop-color="#E26895"/>
<stop offset="1" stop-color="#E26895"/>
</linearGradient>
<linearGradient id="paint10_linear_4706_16845" x1="163.65" y1="271.662" x2="89.043" y2="358.626" gradientUnits="userSpaceOnUse">
<stop stop-color="#E26895"/>
<stop offset="1" stop-color="#E26895"/>
</linearGradient>
<linearGradient id="paint11_linear_4706_16845" x1="236.993" y1="219.386" x2="183.218" y2="300.384" gradientUnits="userSpaceOnUse">
<stop stop-color="#E26895"/>
<stop offset="1" stop-color="#E26895"/>
</linearGradient>
<linearGradient id="paint12_linear_4706_16845" x1="216.822" y1="212.421" x2="216.822" y2="413.306" gradientUnits="userSpaceOnUse">
<stop stop-color="#FDC8CE"/>
<stop offset="1" stop-color="#FDC8CE"/>
</linearGradient>
<linearGradient id="paint13_linear_4706_16845" x1="89" y1="218.182" x2="175.872" y2="274.118" gradientUnits="userSpaceOnUse">
<stop stop-color="#F9ABB4"/>
<stop offset="1" stop-color="#F9ABB4"/>
</linearGradient>
<linearGradient id="paint14_linear_4706_16845" x1="162.281" y1="175.659" x2="249.109" y2="231.631" gradientUnits="userSpaceOnUse">
<stop stop-color="#F9ABB4"/>
<stop offset="1" stop-color="#F9ABB4"/>
</linearGradient>
</defs>
</svg>
